<svg width="19" height="19" viewBox="0 0 19 19" fill="none" xmlns="http://www.w3.org/2000/svg">
<path d="M9.80847 2.01504C12.1944 2.01504 12.4774 2.02398 13.4202 2.06717C15.8419 2.17738 16.973 3.32642 17.0832 5.73025C17.1264 6.67227 17.1346 6.95524 17.1346 9.3412C17.1346 11.7279 17.1257 12.0101 17.0832 12.9522C16.9723 15.3537 15.8441 16.505 13.4202 16.6152C12.4774 16.6584 12.1959 16.6674 9.80847 16.6674C7.42252 16.6674 7.13954 16.6584 6.19752 16.6152C3.76986 16.5043 2.64465 15.35 2.53444 12.9514C2.49125 12.0094 2.48231 11.7272 2.48231 9.34045C2.48231 6.9545 2.49199 6.67227 2.53444 5.7295C2.6454 3.32642 3.77359 2.17663 6.19752 2.06642C7.14028 2.02398 7.42252 2.01504 9.80847 2.01504V2.01504ZM9.80847 0.404297C7.38156 0.404297 7.07773 0.414722 6.12454 0.457914C2.87923 0.60685 1.07561 2.40749 0.926676 5.65578C0.88274 6.60971 0.872314 6.91354 0.872314 9.34045C0.872314 11.7674 0.88274 12.0719 0.925931 13.0251C1.07487 16.2704 2.8755 18.0741 6.1238 18.223C7.07773 18.2662 7.38156 18.2766 9.80847 18.2766C12.2354 18.2766 12.54 18.2662 13.4931 18.223C16.7355 18.0741 18.5436 16.2734 18.6903 13.0251C18.7342 12.0719 18.7446 11.7674 18.7446 9.34045C18.7446 6.91354 18.7342 6.60971 18.691 5.65652C18.5451 2.41419 16.7422 0.607594 13.4939 0.458658C12.54 0.414722 12.2354 0.404297 9.80847 0.404297V0.404297ZM9.80847 4.75174C7.27433 4.75174 5.21975 6.80631 5.21975 9.34045C5.21975 11.8746 7.27433 13.9299 9.80847 13.9299C12.3426 13.9299 14.3972 11.8753 14.3972 9.34045C14.3972 6.80631 12.3426 4.75174 9.80847 4.75174ZM9.80847 12.3192C8.16347 12.3192 6.82975 10.9862 6.82975 9.34045C6.82975 7.69546 8.16347 6.36173 9.80847 6.36173C11.4535 6.36173 12.7872 7.69546 12.7872 9.34045C12.7872 10.9862 11.4535 12.3192 9.80847 12.3192ZM14.5789 3.49844C13.9861 3.49844 13.5058 3.97876 13.5058 4.57078C13.5058 5.1628 13.9861 5.64312 14.5789 5.64312C15.1709 5.64312 15.6505 5.1628 15.6505 4.57078C15.6505 3.97876 15.1709 3.49844 14.5789 3.49844Z" fill="#FB3192"/>
</svg>
