<?xml version="1.0" encoding="UTF-8" standalone="no"?>
<svg
   xmlns:dc="http://purl.org/dc/elements/1.1/"
   xmlns:cc="http://creativecommons.org/ns#"
   xmlns:rdf="http://www.w3.org/1999/02/22-rdf-syntax-ns#"
   xmlns:svg="http://www.w3.org/2000/svg"
   xmlns="http://www.w3.org/2000/svg"
   xmlns:sodipodi="http://sodipodi.sourceforge.net/DTD/sodipodi-0.dtd"
   xmlns:inkscape="http://www.inkscape.org/namespaces/inkscape"
   width="17"
   height="17"
   viewBox="0 0 17 17"
   version="1.1"
   id="svg4"
   sodipodi:docname="linkedin.svg"
   inkscape:version="0.92.5 (2060ec1f9f, 2020-04-08)">
  <metadata
     id="metadata10">
    <rdf:RDF>
      <cc:Work
         rdf:about="">
        <dc:format>image/svg+xml</dc:format>
        <dc:type
           rdf:resource="http://purl.org/dc/dcmitype/StillImage" />
        <dc:title></dc:title>
      </cc:Work>
    </rdf:RDF>
  </metadata>
  <defs
     id="defs8" />
  <sodipodi:namedview
     pagecolor="#ffffff"
     bordercolor="#666666"
     borderopacity="1"
     objecttolerance="10"
     gridtolerance="10"
     guidetolerance="10"
     inkscape:pageopacity="0"
     inkscape:pageshadow="2"
     inkscape:window-width="1366"
     inkscape:window-height="716"
     id="namedview6"
     showgrid="false"
     inkscape:zoom="9.8333333"
     inkscape:cx="10.665773"
     inkscape:cy="12"
     inkscape:window-x="0"
     inkscape:window-y="0"
     inkscape:window-maximized="1"
     inkscape:current-layer="svg4" />
  <path
     d="M 13.458333,0 H 3.5416667 C 1.5859583,0 0,1.5859583 0,3.541667 v 9.916666 C 0,15.414042 1.5859583,17 3.5416667,17 H 13.458333 C 15.41475,17 17,15.414042 17,13.458333 V 3.541667 C 17,1.5859583 15.41475,0 13.458333,0 Z M 5.6666667,13.458333 h -2.125 V 5.666667 h 2.125 z M 4.6041667,4.7685 c -0.68425,0 -1.2395834,-0.559583 -1.2395834,-1.2495 0,-0.6899167 0.5553334,-1.2495 1.2395834,-1.2495 0.68425,0 1.2395833,0.5595833 1.2395833,1.2495 0,0.689917 -0.554625,1.2495 -1.2395833,1.2495 z m 9.5625003,8.689833 h -2.125 v -3.9695 c 0,-2.385666 -2.8333337,-2.205041 -2.8333337,0 v 3.9695 h -2.125 V 5.666667 h 2.125 V 6.916875 C 10.197167,5.085125 14.166667,4.949833 14.166667,8.670708 Z"
     id="path2"
     style="opacity:1;fill:#378ae9;fill-opacity:0.99468085;stroke-width:0.70833331"
     inkscape:connector-curvature="0" />
</svg>
