<svg width="19" height="19" viewBox="0 0 19 19" fill="none" xmlns="http://www.w3.org/2000/svg">
<path fill-rule="evenodd" clip-rule="evenodd" d="M9.70215 0.404297C4.76709 0.404297 0.765869 4.40546 0.765869 9.34045C0.765869 14.2754 4.76709 18.2766 9.70215 18.2766C14.6372 18.2766 18.6384 14.2754 18.6384 9.34045C18.6384 4.40546 14.6372 0.404297 9.70215 0.404297ZM9.70215 1.89366C13.8084 1.89366 17.149 5.23429 17.149 9.34045C17.149 13.4466 13.8084 16.7873 9.70215 16.7873C5.59593 16.7873 2.25525 13.4466 2.25525 9.34045C2.25525 5.23429 5.59593 1.89366 9.70215 1.89366ZM11.7069 12.9812C11.8267 13.0668 11.9809 13.0877 12.1187 13.0356C12.2564 12.9834 12.3585 12.8658 12.3882 12.7228C12.7122 11.2022 13.4971 7.3529 13.7912 5.97003C13.8136 5.86578 13.7771 5.7578 13.6952 5.6878C13.6133 5.61854 13.4993 5.59844 13.398 5.63567C11.8372 6.21354 7.02871 8.01716 5.06347 8.74471C4.93837 8.79088 4.8572 8.91077 4.86166 9.04258C4.86613 9.17439 4.95475 9.28833 5.08209 9.3263C5.9638 9.58992 7.12105 9.95705 7.12105 9.95705C7.12105 9.95705 7.66095 11.5901 7.94319 12.4204C7.97819 12.524 8.06011 12.6066 8.16734 12.6342C8.27532 12.6625 8.38926 12.6334 8.46969 12.5575C8.92246 12.13 9.62247 11.4695 9.62247 11.4695C9.62247 11.4695 10.9525 12.4443 11.7069 12.9812V12.9812ZM7.60734 9.75077L8.23288 11.8128L8.37139 10.5066C8.37139 10.5066 10.7864 8.32843 12.1633 7.08631C12.2043 7.05056 12.2095 6.9895 12.176 6.94631C12.1425 6.90386 12.0822 6.89344 12.036 6.92248C10.4401 7.9412 7.60734 9.75077 7.60734 9.75077V9.75077Z" fill="#378AE9"/>
</svg>
