<svg width="19" height="19" viewBox="0 0 19 19" fill="none" xmlns="http://www.w3.org/2000/svg">
<path d="M0.446167 18.2766L1.70244 13.6871C0.927228 12.3437 0.51989 10.8209 0.520635 9.25928C0.522869 4.37716 4.49572 0.404297 9.37708 0.404297C11.7459 0.405042 13.9695 1.3277 15.642 3.00174C17.3138 4.67578 18.2343 6.90088 18.2335 9.26748C18.2313 14.1503 14.2584 18.1232 9.37708 18.1232C7.89517 18.1225 6.43486 17.7509 5.14135 17.0449L0.446167 18.2766V18.2766ZM5.3588 15.4416C6.60688 16.1826 7.79836 16.6264 9.3741 16.6271C13.4311 16.6271 16.736 13.3252 16.7382 9.26599C16.7397 5.19854 13.4505 1.9011 9.38006 1.89961C5.32008 1.89961 2.01744 5.20152 2.01595 9.26003C2.0152 10.9169 2.50073 12.1576 3.31615 13.4556L2.57222 16.1721L5.3588 15.4416V15.4416ZM13.8384 11.3727C13.7833 11.2803 13.6359 11.2252 13.414 11.1143C13.1928 11.0033 12.1048 10.4679 11.9015 10.3942C11.699 10.3205 11.5515 10.2832 11.4033 10.5051C11.2559 10.7263 10.8314 11.2252 10.7026 11.3727C10.5738 11.5201 10.4442 11.5387 10.223 11.4278C10.0019 11.3168 9.28846 11.0837 8.44325 10.3294C7.7857 9.74258 7.34113 9.01801 7.2123 8.79609C7.08347 8.57492 7.1989 8.45503 7.30911 8.34482C7.4089 8.24577 7.53028 8.08641 7.64123 7.95684C7.75368 7.82875 7.79017 7.73641 7.86464 7.58822C7.93836 7.44078 7.90187 7.3112 7.84602 7.20024C7.79017 7.09003 7.34783 6.00057 7.1639 5.55748C6.98369 5.12631 6.80124 5.1844 6.66571 5.17769L6.24124 5.17025C6.0938 5.17025 5.85401 5.22535 5.65146 5.44727C5.44891 5.66918 4.87699 6.20386 4.87699 7.29333C4.87699 8.3828 5.67008 9.43503 5.78029 9.58247C5.89124 9.72992 7.34039 11.9655 9.56027 12.9239C10.0882 13.1517 10.5008 13.288 10.8217 13.39C11.352 13.5583 11.8345 13.5345 12.2158 13.4779C12.641 13.4146 13.5249 12.9425 13.7096 12.4257C13.8943 11.9081 13.8943 11.465 13.8384 11.3727V11.3727Z" fill="#37E97E"/>
</svg>
