<?xml version="1.0" encoding="UTF-8" standalone="no"?>
<svg
   xmlns:dc="http://purl.org/dc/elements/1.1/"
   xmlns:cc="http://creativecommons.org/ns#"
   xmlns:rdf="http://www.w3.org/1999/02/22-rdf-syntax-ns#"
   xmlns:svg="http://www.w3.org/2000/svg"
   xmlns="http://www.w3.org/2000/svg"
   xmlns:sodipodi="http://sodipodi.sourceforge.net/DTD/sodipodi-0.dtd"
   xmlns:inkscape="http://www.inkscape.org/namespaces/inkscape"
   width="320"
   height="130"
   viewBox="0 0 320 130"
   version="1.1"
   id="svg102"
   sodipodi:docname="Customer_services.svg"
   inkscape:version="0.92.5 (2060ec1f9f, 2020-04-08)"
   style="fill:none">
  <metadata
     id="metadata108">
    <rdf:RDF>
      <cc:Work
         rdf:about="">
        <dc:format>image/svg+xml</dc:format>
        <dc:type
           rdf:resource="http://purl.org/dc/dcmitype/StillImage" />
        <dc:title></dc:title>
      </cc:Work>
    </rdf:RDF>
  </metadata>
  <defs
     id="defs106" />
  <sodipodi:namedview
     pagecolor="#ffffff"
     bordercolor="#666666"
     borderopacity="1"
     objecttolerance="10"
     gridtolerance="10"
     guidetolerance="10"
     inkscape:pageopacity="0"
     inkscape:pageshadow="2"
     inkscape:window-width="1366"
     inkscape:window-height="716"
     id="namedview104"
     showgrid="false"
     inkscape:zoom="0.99337748"
     inkscape:cx="251.7041"
     inkscape:cy="114"
     inkscape:window-x="0"
     inkscape:window-y="0"
     inkscape:window-maximized="1"
     inkscape:current-layer="svg102" />
  <path
     d="m 156.9287,58.666098 c 0,0 -18.02655,-6.463981 -24.13643,-2.019381 -6.10968,4.444791 -24.43847,52.494233 -21.04905,60.542063 3.38943,8.04783 28.65869,3.99413 28.65869,3.99413 0,0 70.96245,3.87045 78.17319,1.38614 10.72357,-3.70225 -13.08831,-61.685652 -16.63972,-64.764142 -3.5514,-3.078561 -19.96953,2.23228 -19.96953,2.23228"
     id="path2"
     inkscape:connector-curvature="0"
     style="fill:#b4e4f9;stroke-width:0.6839897" />
  <path
     d="m 142.06467,107.90337 c -0.0544,0 -0.10719,-0.0157 -0.15155,-0.0445 -8.45176,-5.29061 -19.29993,-3.93458 -19.42945,-3.91953 -0.0709,0.008 -0.14249,-0.01 -0.1991,-0.0491 -0.0567,-0.0399 -0.0939,-0.0988 -0.10316,-0.16426 -0.01,-0.0641 0.009,-0.12893 0.0516,-0.18063 0.0424,-0.0517 0.10523,-0.0864 0.17506,-0.0962 0.1133,0 11.16121,-1.40053 19.78596,3.99938 0.0293,0.0183 0.0551,0.0419 0.0743,0.0694 0.02,0.0268 0.0336,0.0576 0.0401,0.0903 0.006,0.0321 0.006,0.0654 -10e-4,0.0975 -0.007,0.0314 -0.0222,0.0622 -0.0429,0.089 -0.0223,0.0308 -0.0515,0.0569 -0.0858,0.0759 -0.035,0.0183 -0.0736,0.0301 -0.11367,0.0327 z"
     id="path4"
     inkscape:connector-curvature="0"
     style="fill:#1a1a1a;stroke-width:0.6839897" />
  <path
     d="m 194.37934,107.90337 c -0.0594,0.002 -0.11709,-0.0137 -0.16583,-0.0445 -0.0486,-0.0314 -0.0845,-0.0766 -0.1023,-0.12827 -0.0165,-0.0517 -0.0165,-0.10734 0.002,-0.15838 0.0192,-0.051 0.058,-0.0949 0.10804,-0.12369 8.63546,-5.39991 19.67784,-4.01443 19.79153,-3.99938 0.0702,0.01 0.13227,0.0445 0.17517,0.0962 0.042,0.0517 0.0607,0.11649 0.0515,0.18063 -0.011,0.0654 -0.0486,0.12434 -0.10646,0.16426 -0.0572,0.0399 -0.12952,0.0576 -0.20102,0.0491 -0.1078,0 -10.95661,-1.37108 -19.40336,3.91953 -0.0443,0.0281 -0.0966,0.0438 -0.1507,0.0445 z"
     id="path6"
     inkscape:connector-curvature="0"
     style="fill:#1a1a1a;stroke-width:0.6839897" />
  <path
     d="m 136.58672,100.75672 c -0.0358,-0.002 -0.0708,-0.0105 -0.10218,-0.0249 -0.0321,-0.0137 -0.0607,-0.034 -0.0843,-0.0582 -0.0236,-0.0242 -0.0414,-0.053 -0.0529,-0.0838 -0.0122,-0.0308 -0.0165,-0.0628 -0.0143,-0.0956 l 1.89437,-29.459639 c 0.002,-0.0321 0.011,-0.0641 0.0264,-0.0936 0.0156,-0.0288 0.0371,-0.055 0.0637,-0.0772 0.0264,-0.0216 0.0579,-0.038 0.0915,-0.0484 0.0336,-0.0105 0.0687,-0.0151 0.10438,-0.0131 0.0358,0.001 0.0708,0.009 0.10291,0.0229 0.0321,0.0144 0.0615,0.034 0.0851,0.0582 0.0237,0.0249 0.0414,0.0537 0.0529,0.0844 0.0122,0.0314 0.0156,0.0641 0.0129,0.0969 l -1.89437,29.458989 c -0.006,0.0654 -0.0386,0.12631 -0.0922,0.1695 -0.0529,0.0432 -0.12296,0.0661 -0.19374,0.0635 z"
     id="path8"
     inkscape:connector-curvature="0"
     style="fill:#1a1a1a;stroke-width:0.6839897" />
  <path
     d="m 194.37934,100.75672 c -0.0715,0 -0.14025,-0.0262 -0.19085,-0.0726 -0.0508,-0.0465 -0.0794,-0.10929 -0.0794,-0.17474 V 72.297131 c 0,-0.0654 0.0286,-0.12893 0.0794,-0.17474 0.0508,-0.0465 0.11941,-0.0726 0.19085,-0.0726 0.0715,0 0.14025,0.0262 0.19085,0.0726 0.0508,0.0458 0.0786,0.1093 0.0786,0.17474 v 28.212249 c 0,0.0654 -0.0277,0.12827 -0.0786,0.17474 -0.0508,0.0465 -0.11941,0.0726 -0.19085,0.0726 z"
     id="path10"
     inkscape:connector-curvature="0"
     style="fill:#1a1a1a;stroke-width:0.6839897" />
  <path
     d="m 150.68943,56.800248 c 0,0 6.18493,29.652046 17.81065,43.709092 0,0 15.74903,-25.875849 18.81432,-41.996572 0,0 -11.94954,2.10361 -16.3695,2.14288 -4.42068,0.0399 -20.25547,-3.8554 -20.25547,-3.8554 z"
     id="path12"
     inkscape:connector-curvature="0"
     style="fill:#1a1a1a;stroke-width:0.6839897" />
  <path
     d="m 168.47292,100.75672 c -0.0422,6.6e-4 -0.0836,-0.008 -0.12149,-0.0255 -0.0371,-0.017 -0.0701,-0.0425 -0.0943,-0.0739 -11.5178,-13.942516 -17.78351,-43.510532 -17.84857,-43.807522 -0.009,-0.0411 -0.005,-0.0834 0.01,-0.123171 0.0143,-0.0398 0.0386,-0.0756 0.0715,-0.10451 0.0336,-0.0293 0.0744,-0.0501 0.11868,-0.0605 0.0442,-0.0104 0.0908,-0.0101 0.13517,0.001 0.15655,0.0396 15.6518,3.845571 20.09892,3.845571 h 0.0708 c 4.34992,-0.0393 16.19151,-2.1133 16.3259,-2.13803 0.0429,-0.007 0.0871,-0.005 0.1287,0.007 0.0416,0.0121 0.0787,0.0334 0.10951,0.0619 0.0314,0.0275 0.0545,0.0619 0.0679,0.1 0.0137,0.0381 0.0165,0.0786 0.009,0.1178 -3.03815,15.976693 -18.68994,41.813272 -18.8465,42.070472 -0.0214,0.0366 -0.0522,0.0674 -0.0901,0.0903 -0.0379,0.0223 -0.0808,0.0353 -0.12581,0.0386 z M 151.03971,57.141748 c 0.77204,3.50932 6.84404,29.820366 17.41176,42.912092 1.82933,-3.058924 15.53314,-26.306479 18.51766,-41.229362 -2.11598,0.3665 -12.03032,2.03928 -16.03496,2.07855 h -0.0701 c -4.14546,-0.0196 -17.24951,-3.13765 -19.82441,-3.76128 z"
     id="path14"
     inkscape:connector-curvature="0"
     style="fill:#1a1a1a;stroke-width:0.6839897" />
  <path
     d="m 164.78141,67.76826 2.49842,3.974511 -6.29288,17.085853 7.50242,11.680716 6.84332,-12.225226 -4.95468,-16.467393 2.60709,-4.048461 -4.13474,-3.761801 z"
     id="path16"
     inkscape:connector-curvature="0"
     style="fill:#d1d3d4;stroke-width:0.6839897" />
  <path
     d="m 168.47292,100.75672 c -0.0478,6.6e-4 -0.095,-0.0105 -0.13722,-0.0327 -0.0416,-0.0216 -0.0765,-0.053 -0.1001,-0.091 l -7.4967,-11.680715 c -0.017,-0.0321 -0.0264,-0.0668 -0.0264,-0.10144 0,-0.0353 0.01,-0.07 0.0264,-0.101441 l 6.24999,-16.977213 -2.43981,-3.875031 c -0.0293,-0.0471 -0.0407,-0.10144 -0.0329,-0.15511 0.009,-0.0537 0.0343,-0.1034 0.0765,-0.14201 l 4.06399,-3.761811 c 0.0223,-0.0275 0.0515,-0.0484 0.0858,-0.0615 0.0344,-0.0131 0.0715,-0.0177 0.10792,-0.0124 0.0357,-6.6e-4 0.0708,0.006 0.10365,0.0183 0.0321,0.0131 0.0615,0.0321 0.0858,0.0556 l 4.13402,3.761811 c 0.0436,0.038 0.0722,0.089 0.08,0.14398 0.009,0.055 -0.006,0.1106 -0.0371,0.15772 l -2.54704,3.959451 4.92752,16.367923 c 0.0214,0.0582 0.0214,0.12042 0,0.17867 l -6.84906,12.225216 c -0.0229,0.0386 -0.0559,0.0713 -0.0966,0.0949 -0.0407,0.0236 -0.0871,0.0366 -0.13585,0.0386 z m -7.1893,-11.958196 7.1893,11.185943 6.57384,-11.735033 -4.92752,-16.377743 c -0.0143,-0.0308 -0.0222,-0.0635 -0.0222,-0.0968 0,-0.0334 0.009,-0.0661 0.0222,-0.0962 l 2.49843,-3.880921 -3.77803,-3.464681 -3.7294,3.464681 2.39691,3.811551 c 0.0143,0.0321 0.0222,0.0667 0.0222,0.10144 0,0.0347 -0.009,0.0694 -0.0222,0.10144 z"
     id="path18"
     inkscape:connector-curvature="0"
     style="fill:#1a1a1a;stroke-width:0.6839897" />
  <path
     d="m 156.02155,55.721247 23.70465,0.0693 -0.41604,8.300322 h -16.74195 l -8.12793,-3.568741 z"
     id="path20"
     inkscape:connector-curvature="0"
     style="fill:#1a1a1a;stroke-width:0.6839897" />
  <path
     d="m 179.31016,64.348079 h -16.73123 c -0.0372,0.007 -0.0758,0.007 -0.11294,0 l -8.13364,-3.568741 c -0.0579,-0.0262 -0.10303,-0.0707 -0.1287,-0.125 -0.0258,-0.0543 -0.03,-0.11519 -0.011,-0.17147 l 1.58126,-4.796301 c 0.0156,-0.0518 0.0494,-0.0974 0.0966,-0.12971 0.0464,-0.0323 0.10364,-0.0493 0.16228,-0.0485 l 23.70966,0.0693 c 0.0736,0.002 0.14369,0.0304 0.19446,0.0792 0.0242,0.0239 0.0429,0.052 0.055,0.0825 0.0123,0.0306 0.017,0.0632 0.0152,0.0957 l -0.41532,8.300322 c -0.01,0.0609 -0.0436,0.11715 -0.095,0.15642 -0.0522,0.0393 -0.11794,0.0596 -0.18587,0.0563 z m -16.6769,-0.49477 h 16.41812 l 0.39388,-7.805422 -23.20783,-0.0693 -1.47333,4.410041 z"
     id="path22"
     inkscape:connector-curvature="0"
     style="fill:#1a1a1a;stroke-width:0.6839897" />
  <path
     d="m 185.89471,34.651273 c 1.26888,-2.568801 1.61914,-6.018572 2.09955,-8.770482 0.21587,-1.242291 0.91214,-2.875611 0.72341,-4.127848 -0.13502,-0.876053 -0.78776,-1.583846 -0.84711,-2.573709 -0.0487,-0.881028 -0.0438,-1.821414 -0.57759,-2.553945 -0.53471,-0.732532 -1.85649,-1.04438 -2.4341,-0.341495 0.76562,-2.199296 1.21957,-4.480072 1.34895,-6.7857825 -2.04165,0.8583835 -4.29629,1.2002055 -6.53022,0.9899295 0.905,-0.6693114 1.66991,-1.4845006 2.25608,-2.4054498 -1.95369,1.3660443 -4.69016,0.9106742 -7.12998,0.6236301 -5.56444,-0.6533421 -11.44201,0 -16.29945,2.5885657 -1.55984,0.831551 -3.13037,2.049098 -3.30836,3.702187 -0.61764,-0.110276 -1.25602,-0.06852 -1.85077,0.120943 -0.59405,0.18953 -1.12376,0.520096 -1.53337,0.958057 -0.81065,0.887964 -1.35537,1.954006 -1.58126,3.093412 -1.61916,6.543245 1.07944,12.165856 1.76997,18.619967 5.26779,0.29692 10.58419,0.707791 15.90057,0.633511 4.22553,-0.0792 15.73758,0.77212 17.99368,-3.771491 z"
     id="path24"
     inkscape:connector-curvature="0"
     style="fill:#ffffff;stroke-width:0.6839897" />
  <path
     d="m 172.25095,38.680164 c -0.80995,0 -1.57627,0 -2.28326,0 -0.78777,0 -1.48404,0 -2.04521,0 -4.31773,0.0643 -8.68408,-0.20288 -12.90461,-0.455311 l -3.01741,-0.17821 c -0.0643,-0.003 -0.12512,-0.0275 -0.17156,-0.0683 -0.0464,-0.0408 -0.0758,-0.0956 -0.0815,-0.15439 -0.22731,-2.08372 -0.66981,-4.103101 -1.07943,-6.058151 -0.92358,-4.202131 -1.79214,-8.171592 -0.66981,-12.640998 0.2216,-1.179984 0.77991,-2.285031 1.61915,-3.202315 0.41103,-0.439139 0.93075,-0.781222 1.5162,-0.997389 0.58548,-0.216232 1.21813,-0.300198 1.84649,-0.244897 0.26449,-1.341306 1.40899,-2.558919 3.39985,-3.618089 4.51218,-2.4054497 10.36258,-3.3359539 16.47247,-2.6231867 l 0.53972,0.06433 c 2.29896,0.277162 4.67945,0.5691791 6.40081,-0.6335782 0.0479,-0.03665 0.10793,-0.05674 0.17015,-0.05674 0.0621,0 0.12223,0.02009 0.17013,0.05674 0.0472,0.03809 0.0786,0.09012 0.0887,0.1469911 0.01,0.05694 -0.002,0.115249 -0.0344,0.164857 -0.49753,0.7747442 -1.11731,1.4770393 -1.84075,2.0837198 1.97658,0.100197 3.951,-0.2394 5.75316,-0.9898636 0.042,-0.018 0.0893,-0.02566 0.13503,-0.02232 0.0464,0.0034 0.0915,0.0178 0.13007,0.04169 0.0385,0.02395 0.0693,0.05661 0.0902,0.09483 0.022,0.03822 0.0308,0.0807 0.0277,0.123365 -0.11855,2.0959576 -0.50254,4.1722156 -1.14378,6.1868246 0.16527,-0.04064 0.33599,-0.05897 0.50682,-0.05445 0.33171,0.01256 0.65555,0.09503 0.9465,0.240905 0.29166,0.145943 0.54186,0.351442 0.73271,0.600527 0.44179,0.745425 0.65268,1.587577 0.60978,2.435162 v 0.242476 c 0.0528,0.474807 0.19718,0.93731 0.42607,1.366044 0.19525,0.377555 0.33456,0.776968 0.41532,1.187901 0.0581,0.989802 -0.0814,1.980842 -0.4096,2.925152 -0.1243,0.455371 -0.2431,0.885941 -0.31312,1.276981 -0.0864,0.49496 -0.17297,1.04431 -0.2596,1.58875 -0.37744,2.400481 -0.80921,5.122751 -1.86151,7.241092 -1.74924,3.53392 -8.64689,3.929871 -13.88179,3.929871 z m -3.82665,-0.529591 h 1.54911 c 4.82528,0.0594 13.81104,0.16833 15.68967,-3.63785 1.02011,-2.058981 1.44617,-4.741591 1.8186,-7.107452 0.0867,-0.54941 0.17297,-1.0839 0.26455,-1.5987 0.0702,-0.4108 0.18865,-0.85131 0.31311,-1.316571 0.30025,-0.87467 0.43036,-1.79124 0.38317,-2.707344 -0.0743,-0.368459 -0.20075,-0.726249 -0.37745,-1.064144 -0.25602,-0.481417 -0.41532,-1.00112 -0.46966,-1.534304 v -0.242541 c 0.0358,-0.75871 -0.15015,-1.512512 -0.53972,-2.182739 -0.14217,-0.183313 -0.32739,-0.334753 -0.54257,-0.442804 -0.21505,-0.107985 -0.45392,-0.169831 -0.69914,-0.180826 -0.14163,-0.01126 -0.28377,0.0095 -0.41461,0.06034 -0.1309,0.05092 -0.24585,0.130498 -0.33526,0.231677 -0.0379,0.04738 -0.093,0.08083 -0.1551,0.09444 -0.0621,0.01361 -0.12788,0.0065 -0.18508,-0.02016 -0.0559,-0.02808 -0.1001,-0.07284 -0.1243,-0.126768 -0.0248,-0.05399 -0.0277,-0.114006 -0.011,-0.170224 0.71627,-2.050081 1.15663,-4.172609 1.31175,-6.3204645 -1.9787,0.7583175 -4.1333,1.0493535 -6.26643,0.8463415 -0.0529,-0.0046 -0.10303,-0.02421 -0.14369,-0.05615 -0.0407,-0.03187 -0.0693,-0.07448 -0.0829,-0.121991 -0.0156,-0.04666 -0.0165,-0.09666 -7.4e-4,-0.143456 0.0152,-0.04679 0.0458,-0.08829 0.0871,-0.118915 0.58618,-0.4341004 1.11232,-0.9327945 1.56553,-1.4848277 -1.75425,0.6780812 -3.87023,0.4206841 -5.76961,0.1880901 l -0.53972,-0.05942 c -5.99121,-0.7028192 -11.71722,0.202946 -16.12717,2.5539456 -1.97015,1.049287 -3.03816,2.232214 -3.17898,3.514161 -0.004,0.03547 -0.0152,0.0699 -0.0351,0.100655 -0.0193,0.03083 -0.0458,0.05727 -0.078,0.07749 -0.0321,0.02003 -0.0686,0.03344 -0.10657,0.03946 -0.0386,0.006 -0.0772,0.0043 -0.11514,-0.0048 -0.56972,-0.101899 -1.15877,-0.06394 -1.70707,0.109818 -0.54901,0.173823 -1.03798,0.477424 -1.41755,0.880045 -0.77992,0.851446 -1.30247,1.87534 -1.51694,2.969721 -1.07943,4.370384 -0.23732,8.285395 0.67483,12.433076 0.41533,1.9006 0.84211,3.865531 1.07944,5.899781 l 2.79009,0.16328 c 4.21549,0.25243 8.57113,0.49497 12.8617,0.45537 z"
     id="path26"
     inkscape:connector-curvature="0"
     style="fill:#1a1a1a;stroke-width:0.6839897" />
  <path
     d="m 156.9287,61.709969 c 0,0 4.38779,2.05892 11.92166,2.29649 7.53461,0.23756 8.79776,-1.6381 8.79776,-1.6381 l -0.18372,-3.697021 -0.41034,-8.592472 -0.4096,-8.003332 -17.19591,-0.54444 -0.81994,6.483822 -0.25376,2.1184 z"
     id="path28"
     inkscape:connector-curvature="0"
     style="fill:#ffffff;stroke-width:0.6839897" />
  <path
     d="m 170.12996,64.274129 c -0.41032,0 -0.83638,0 -1.29032,0 -7.50742,-0.23757 -11.98671,-2.30172 -12.03034,-2.32135 -0.0494,-0.0216 -0.0908,-0.0576 -0.11647,-0.1021 -0.0264,-0.0445 -0.0364,-0.0956 -0.0286,-0.14529 l 2.51488,-20.208915 c 0.002,-0.0313 0.0123,-0.0617 0.0279,-0.0896 0.0156,-0.0279 0.0372,-0.0526 0.063,-0.0729 0.0264,-0.0202 0.0565,-0.0355 0.0887,-0.045 0.0329,-0.009 0.0672,-0.013 0.10084,-0.0103 l 17.19588,0.54444 c 0.068,0.002 0.13227,0.0283 0.18016,0.0723 0.0478,0.044 0.0758,0.10301 0.0786,0.16525 l 0.99293,20.292615 c 0.002,0.0511 -0.0123,0.10144 -0.0429,0.14398 -0.0486,0.0838 -1.29531,1.77685 -7.73404,1.77685 z m -12.91033,-2.70748 c 0.86928,0.36126 5.06835,1.97972 11.64217,2.19242 6.47661,0.20288 8.20871,-1.17802 8.50037,-1.48496 l -0.97148,-19.995625 -16.70409,-0.53456 z"
     id="path30"
     inkscape:connector-curvature="0"
     style="fill:#1a1a1a;stroke-width:0.6839897" />
  <path
     d="m 158.37485,50.153086 c 1.22526,1.97979 3.31909,3.528951 5.47795,4.721761 3.62718,1.979791 9.08869,4.286021 13.60087,3.801071 l -0.41032,-8.592142 c -3.30623,0.27278 -6.63531,0.18639 -9.92009,-0.2574 -2.89229,-0.32173 -5.87182,-0.68299 -8.49464,-1.7917 z"
     id="path32"
     inkscape:connector-curvature="0"
     style="fill:#1a1a1a;stroke-width:0.6839897" />
  <path
     d="m 176.16907,58.988098 c -4.63085,0 -9.7149,-2.385881 -12.45638,-3.900421 -2.59636,-1.43535 -4.47429,-3.053821 -5.57517,-4.810901 -0.0273,-0.0454 -0.0386,-0.0971 -0.0329,-0.14843 l 0.25377,-2.11841 c 0.005,-0.0388 0.02,-0.076 0.0436,-0.10857 0.0237,-0.0327 0.055,-0.0599 0.0914,-0.0795 0.0386,-0.0182 0.0809,-0.0277 0.12443,-0.0277 0.0429,0 0.0858,0.01 0.12362,0.0277 2.6607,1.12357 5.71599,1.48483 8.41458,1.77194 3.2626,0.4411 6.57096,0.52585 9.85502,0.25242 0.0364,-0.003 0.0736,-6e-5 0.10866,0.01 0.0351,0.01 0.068,0.0262 0.0958,0.0479 0.0286,0.0217 0.0515,0.0483 0.0686,0.0783 0.0165,0.03 0.0264,0.0628 0.0293,0.0965 l 0.41033,8.597112 c 0.002,0.0622 -0.02,0.12304 -0.0643,0.16951 -0.0442,0.0471 -0.10573,0.0766 -0.17372,0.0831 -0.43678,0.0445 -0.87643,0.0648 -1.31677,0.0596 z m -17.519,-8.909292 c 1.07943,1.65812 2.85514,3.192431 5.34285,4.563441 2.90374,1.59871 8.44174,4.187471 13.18054,3.791331 l -0.3889,-8.097382 c -3.23973,0.2434 -6.49876,0.14876 -9.71491,-0.28213 -2.6178,-0.29693 -5.57515,-0.62854 -8.23086,-1.67292 z"
     id="path34"
     inkscape:connector-curvature="0"
     style="fill:#1a1a1a;stroke-width:0.6839897" />
  <path
     d="m 181.68491,24.01494 c 0.85282,0.0792 0.62622,2.271801 0.63194,3.425021 v 5.850301 c 0,2.291581 0.0865,4.598011 0,6.884672 -0.0315,0.81918 -0.15298,1.63332 -0.36172,2.43019 -0.71629,2.704601 -2.42695,5.100102 -4.84458,6.782512 -2.41765,1.6824 -5.39433,2.54884 -8.42745,2.45322 l -1.53767,-0.0545 c -3.49207,-0.11479 -6.79185,-1.49602 -9.17377,-3.84021 -2.3819,-2.344261 -3.65219,-5.459722 -3.53138,-8.662172 0.0487,-1.331361 0,-2.677631 0,-4.013971 0,-1.697721 -0.97721,-5.840421 1.20882,-6.607572 0.72344,-0.18305 1.46831,-0.28442 2.2182,-0.3019 1.06799,-0.114 2.09881,-0.42487 3.03243,-0.91394 0.9329,-0.48914 1.74855,-1.14628 2.39762,-1.93202 l -0.35099,1.86592 c 3.75372,0.30981 7.5346,-0.16578 11.05883,-1.39079 1.72711,-0.6038 3.51355,-1.484821 4.22053,-3.068671 l -0.065,3.464621 c 0.89642,-0.11879 1.51692,-0.84634 2.12097,-1.48483 0.60477,-0.638491 1.09588,-0.915651 1.40327,-0.885931 z"
     id="path36"
     inkscape:connector-curvature="0"
     style="fill:#ffffff;stroke-width:0.6839897" />
  <path
     d="m 169.15847,52.093276 h -0.46395 l -1.53837,-0.0545 c -1.7664,-0.0543 -3.50351,-0.42749 -5.11193,-1.09817 -1.60844,-0.67069 -3.05745,-1.62573 -4.26271,-2.81043 -1.20596,-1.184761 -2.14528,-2.575871 -2.76364,-4.093811 -0.61834,-1.517941 -0.905,-3.132871 -0.84209,-4.752391 0.0322,-0.885931 0,-1.791701 0,-2.667751 0,-0.4504 0,-0.89589 0,-1.34131 0,-0.34149 -0.0429,-0.78698 -0.0914,-1.30171 -0.18944,-2.054011 -0.44821,-4.860372 1.47831,-5.533552 0.54758,-0.1657 1.11877,-0.25739 1.69495,-0.27218 l 0.58259,-0.0495 c 1.02939,-0.11381 2.02305,-0.4161 2.92235,-0.88881 0.89929,-0.47272 1.68634,-1.1063 2.31326,-1.86311 0.0364,-0.0433 0.0879,-0.0743 0.14584,-0.0881 0.0572,-0.0138 0.11868,-0.01 0.17371,0.0118 0.055,0.0215 0.1001,0.0592 0.1294,0.107 0.0293,0.0478 0.04,0.10314 0.0315,0.15733 l -0.29666,1.60361 c 3.62146,0.25295 7.25937,-0.23036 10.65352,-1.41552 2.21821,-0.77212 3.51352,-1.702631 4.06968,-2.930121 0.0222,-0.0543 0.065,-0.0993 0.12088,-0.12664 0.055,-0.0273 0.12002,-0.0351 0.18158,-0.0219 0.0615,0.0116 0.11734,0.0427 0.15656,0.0879 0.0394,0.0452 0.0607,0.1017 0.0594,0.15962 l -0.0594,3.123121 c 0.5876,-0.268 1.09731,-0.66185 1.48403,-1.1483 l 0.15657,-0.16336 c 0.67982,-0.702821 1.18737,-0.989861 1.61914,-0.989861 0.96077,0.094 0.92288,1.663041 0.88501,3.048841 0,0.22769 0,0.44052 0,0.62363 v 5.850311 c 0,0.762241 0,1.524421 0,2.291571 0,1.50963 0.0436,3.068741 0,4.603041 -0.11514,3.198521 -1.58343,6.230351 -4.09401,8.453202 -2.51056,2.22286 -5.86611,3.46213 -9.35533,3.45526 z M 162.8706,26.355991 c -1.32749,1.24961 -3.08176,2.04445 -4.97041,2.25204 l -0.59977,0.0495 c -0.52613,0.009 -1.04797,0.0886 -1.54837,0.23756 -1.54411,0.539541 -1.30105,3.137981 -1.12805,5.028702 0.0486,0.52959 0.0914,0.98987 0.0914,1.34622 0,0.44549 0,0.886 0,1.3364 0,0.88096 0,1.7917 0,2.687511 -0.0601,1.55433 0.21516,3.10428 0.80851,4.561101 0.59404,1.45681 1.49547,2.79203 2.65211,3.929281 1.15664,1.13724 2.54704,2.05427 4.09043,2.69851 1.54336,0.64425 3.21041,1.00315 4.90534,1.05616 l 1.54409,0.0545 c 1.69492,0.0569 3.38627,-0.19378 4.97611,-0.73763 1.58914,-0.54379 3.04601,-1.37004 4.28629,-2.43137 1.24099,-1.061331 2.24108,-2.336801 2.94235,-3.753301 0.70199,-1.4165 1.09159,-2.946091 1.14736,-4.501081 0.0543,-1.52448 0.0329,-3.078621 0,-4.583211 0,-0.76722 0,-1.5294 0,-2.296611 v -5.850241 c 0,-0.18809 0,-0.40589 0,-0.63358 0,-0.81165 0.065,-2.499431 -0.39889,-2.544001 -0.10792,0 -0.4375,0.0446 -1.17166,0.801841 l -0.15083,0.18312 c -0.56689,0.59392 -1.20383,1.26702 -2.121,1.38581 -0.0393,0.006 -0.0793,0.005 -0.11733,-0.005 -0.0386,-0.009 -0.0737,-0.0264 -0.10438,-0.0498 -0.0293,-0.0245 -0.0522,-0.0542 -0.0679,-0.0876 -0.0165,-0.0332 -0.0242,-0.0692 -0.0237,-0.1055 l 0.0486,-2.474761 c -0.7556,0.940451 -2.00232,1.697721 -3.83735,2.336141 -3.56285,1.23444 -7.38376,1.71494 -11.17749,1.40571 -0.0372,-0.003 -0.0729,-0.0129 -0.10572,-0.0293 -0.0329,-0.0163 -0.0615,-0.0387 -0.0843,-0.0656 -0.0229,-0.0269 -0.0393,-0.0579 -0.0486,-0.091 -0.009,-0.0331 -0.011,-0.0675 -0.004,-0.10124 z"
     id="path38"
     inkscape:connector-curvature="0"
     style="fill:#1a1a1a;stroke-width:0.6839897" />
  <path
     d="m 168.53797,31.765712 c 0,0 4.31774,8.765572 2.41193,8.909092 -1.9051,0.14353 -4.63585,-1.13836 -4.63585,-1.13836"
     id="path40"
     inkscape:connector-curvature="0"
     style="fill:#ffffff;stroke-width:0.6839897" />
  <path
     d="m 170.63178,40.952034 c -1.92654,0 -4.31773,-1.14333 -4.42566,-1.19287 -0.0315,-0.0151 -0.0601,-0.0358 -0.0829,-0.061 -0.0229,-0.0251 -0.04,-0.0542 -0.0507,-0.0855 -0.01,-0.0313 -0.0138,-0.0642 -0.011,-0.0969 0.004,-0.0326 0.0143,-0.0643 0.0307,-0.0931 0.0336,-0.0575 0.0901,-0.10053 0.15799,-0.11997 0.068,-0.0195 0.14083,-0.0137 0.20375,0.016 0.0273,0 2.69857,1.272 4.485,1.1235 0.0322,-7.2e-4 0.063,-0.009 0.0893,-0.0251 0.0264,-0.0157 0.0479,-0.0378 0.0622,-0.0639 0.57761,-0.91074 -1.40326,-5.686951 -2.78508,-8.483442 -0.0242,-0.0589 -0.0229,-0.12408 0.002,-0.18226 0.0264,-0.0583 0.0758,-0.10504 0.13869,-0.13089 0.0628,-0.0259 0.13365,-0.0289 0.19875,-0.008 0.065,0.0205 0.11867,0.0629 0.15083,0.11865 0.37745,0.76218 3.66436,7.508302 2.75792,8.909032 -0.0559,0.0953 -0.13722,0.17605 -0.23661,0.23488 -0.0986,0.0588 -0.21232,0.0938 -0.33026,0.10171 -0.12939,0.0346 -0.25377,0.0396 -0.35601,0.0396 z"
     id="path42"
     inkscape:connector-curvature="0"
     style="fill:#1a1a1a;stroke-width:0.6839897" />
  <path
     d="m 163.51825,35.987663 c 0.50112,0 0.90644,-0.71571 0.90644,-1.59863 0,-0.882931 -0.40532,-1.598711 -0.90644,-1.598711 -0.50041,0 -0.90644,0.71578 -0.90644,1.598711 0,0.88292 0.40603,1.59863 0.90644,1.59863 z"
     id="path44"
     inkscape:connector-curvature="0"
     style="fill:#1a1a1a;stroke-width:0.6839897" />
  <path
     d="m 174.94381,35.987663 c 0.50112,0 0.90716,-0.71571 0.90716,-1.59863 0,-0.882931 -0.40604,-1.598711 -0.90716,-1.598711 -0.5004,0 -0.90644,0.71578 -0.90644,1.598711 0,0.88292 0.40604,1.59863 0.90644,1.59863 z"
     id="path46"
     inkscape:connector-curvature="0"
     style="fill:#1a1a1a;stroke-width:0.6839897" />
  <path
     d="m 179.7262,55.790497 c -0.32382,0 -10.97806,8.215962 -10.97806,8.215962 l 6.58455,7.043242 7.01632,-12.308993 z"
     id="path48"
     inkscape:connector-curvature="0"
     style="fill:#ffffff;stroke-width:0.6839897" />
  <path
     d="m 175.33269,71.277451 c -0.0394,-0.001 -0.0771,-0.01 -0.1122,-0.0249 -0.0358,-0.0157 -0.0672,-0.0373 -0.0929,-0.0641 l -6.58456,-7.038002 c -0.0464,-0.0511 -0.0701,-0.11715 -0.0643,-0.18325 0.002,-0.0327 0.0123,-0.0641 0.0299,-0.0929 0.0165,-0.0288 0.0394,-0.055 0.0664,-0.0753 10.72429,-8.275712 11.02668,-8.275712 11.15106,-8.275712 0.04,2.6e-4 0.0793,0.008 0.11575,0.0237 0.0357,0.0154 0.0686,0.0376 0.0943,0.0654 l 2.64497,2.969721 c 0.0329,0.0379 0.0529,0.084 0.0579,0.13246 0.006,0.0484 -0.006,0.0969 -0.0314,0.14006 l -7.01633,12.308983 c -0.0206,0.0353 -0.0514,0.0654 -0.0879,0.0877 -0.0364,0.0229 -0.0786,0.0366 -0.12223,0.0412 z m -6.20139,-7.261182 6.14778,6.573352 6.76755,-11.839093 -2.37976,-2.658071 c -1.07442,0.697911 -6.67677,4.969601 -10.53557,7.944102 z"
     id="path50"
     inkscape:connector-curvature="0"
     style="fill:#1a1a1a;stroke-width:0.6839897" />
  <path
     d="m 156.02155,55.721247 c 0.35099,0 12.82881,8.285212 12.82881,8.285212 l -7.60964,7.043242 -7.61538,-13.442703 z"
     id="path52"
     inkscape:connector-curvature="0"
     style="fill:#ffffff;stroke-width:0.6839897" />
  <path
     d="m 161.24072,71.277451 h -0.0429 c -0.0422,-0.006 -0.0823,-0.0203 -0.11734,-0.0425 -0.0343,-0.0222 -0.0629,-0.0517 -0.0829,-0.0864 l -7.60966,-13.442573 c -0.0279,-0.0496 -0.0371,-0.10648 -0.025,-0.16132 0.011,-0.0548 0.0429,-0.10432 0.0893,-0.14058 l 2.39119,-1.885741 c 0.0494,-0.0389 0.11294,-0.06 0.17801,-0.0594 0.10792,0 0.43749,0 12.98538,8.334882 0.0329,0.0196 0.0601,0.0458 0.0793,0.0772 0.02,0.0308 0.0315,0.0654 0.0343,0.10079 0.002,0.0353 -0.002,0.0707 -0.0151,0.10406 -0.0123,0.0334 -0.0335,0.0641 -0.0608,0.089 l -7.58821,7.058302 c -0.0299,0.0223 -0.0643,0.0386 -0.10145,0.0484 -0.0371,0.009 -0.0764,0.0111 -0.1144,0.006 z m -7.27511,-13.611093 7.34015,12.967763 7.12927,-6.597562 c -4.60939,-3.058921 -11.33405,-7.454112 -12.36989,-8.023292 z"
     id="path54"
     inkscape:connector-curvature="0"
     style="fill:#1a1a1a;stroke-width:0.6839897" />
  <path
     d="m 168.7317,48.282126 h -0.38816 c -5.14339,-0.33161 -6.22856,-5.711692 -6.23927,-5.766142 -0.009,-0.0346 -0.007,-0.0703 0.002,-0.10458 0.01,-0.0342 0.0264,-0.0662 0.0515,-0.0934 0.025,-0.0274 0.0565,-0.0495 0.0914,-0.0648 0.0358,-0.0154 0.0744,-0.0237 0.11293,-0.0243 l 13.71453,-0.42566 c 0.0451,-0.003 0.0901,0.005 0.13076,0.0236 0.0407,0.0183 0.0758,0.0459 0.10144,0.0804 0.0207,0.0357 0.0321,0.0756 0.0321,0.11629 0,0.0406 -0.011,0.0807 -0.0321,0.11637 -0.0815,0.24745 -2.69859,6.142252 -7.57821,6.142252 z m -6.02839,-5.583022 c 0.29667,1.069121 1.61915,4.820841 5.67811,5.078182 4.05824,0.25739 6.62244,-4.177321 7.28583,-5.474132 z"
     id="path56"
     inkscape:connector-curvature="0"
     style="fill:#1a1a1a;stroke-width:0.6839897" />
  <path
     d="m 151.86609,25.668021 h 2.57419 v 15.838333 h -2.56921 c -1.3053,0 -2.55703,-0.47559 -3.48063,-1.32213 -0.92287,-0.84653 -1.44114,-1.994641 -1.44114,-3.191841 v -6.795591 c -0.002,-0.5936 0.12294,-1.181821 0.36886,-1.730841 0.24662,-0.54902 0.60834,-1.04818 1.06513,-1.46886 0.45681,-0.42068 0.99938,-0.75459 1.59699,-0.98266 0.59762,-0.22808 1.23814,-0.34575 1.88581,-0.34641 z"
     id="path58"
     inkscape:connector-curvature="0"
     style="fill:#ffffff;stroke-width:0.6839897" />
  <path
     d="m 154.44028,41.753804 h -2.57419 c -1.37753,-0.003 -2.69717,-0.50582 -3.67009,-1.39922 -0.97364,-0.89346 -1.52049,-2.104271 -1.52192,-3.367171 v -6.790621 c 0.001,-1.262911 0.54828,-2.473711 1.52192,-3.367171 0.97292,-0.8934 2.29256,-1.39661 3.67009,-1.39923 h 2.57419 c 0.0715,0.001 0.13868,0.0278 0.18945,0.0739 0.05,0.0461 0.0793,0.10838 0.0808,0.17363 v 15.838333 c -0.004,0.0635 -0.0343,0.12323 -0.0843,0.16728 -0.05,0.044 -0.11647,0.0691 -0.18587,0.0703 z m -2.57419,-15.838333 c -1.23601,0.003 -2.42052,0.45498 -3.29263,1.25773 -0.87214,0.80276 -1.36111,1.89027 -1.35968,3.023591 v 6.790621 c 10e-4,1.13162 0.49183,2.216571 1.36323,3.017171 0.87215,0.80059 2.05522,1.25164 3.28908,1.25426 h 2.30469 V 25.915471 Z"
     id="path60"
     inkscape:connector-curvature="0"
     style="fill:#1a1a1a;stroke-width:0.6839897" />
  <path
     d="m 184.94539,41.090584 h -2.56921 V 25.252251 h 2.56921 c 0.64621,0 1.28601,0.11675 1.88364,0.34365 0.59691,0.22684 1.13949,0.5593 1.59628,0.97848 0.45749,0.41918 0.81994,0.91676 1.06728,1.46441 0.24722,0.54764 0.37458,1.13462 0.37458,1.727431 v 6.805481 c 7.4e-4,0.5932 -0.12567,1.1807 -0.37315,1.72894 -0.24668,0.548231 -0.60907,1.046411 -1.06656,1.466111 -0.4568,0.4197 -1.00009,0.75262 -1.59772,0.97978 -0.59763,0.22716 -1.23814,0.34405 -1.88435,0.34405 z"
     id="path62"
     inkscape:connector-curvature="0"
     style="fill:#ffffff;stroke-width:0.6839897" />
  <path
     d="m 184.93967,41.333054 h -2.56921 c -0.0715,0 -0.14011,-0.026 -0.19088,-0.0724 -0.05,-0.0464 -0.0786,-0.10936 -0.0786,-0.175 V 25.247311 c 0,-0.0656 0.0286,-0.1286 0.0786,-0.175 0.0507,-0.0464 0.11941,-0.0724 0.19088,-0.0724 h 2.56921 c 1.37753,0 2.69857,0.50145 3.67292,1.39426 0.97507,0.8928 1.52337,2.10387 1.5248,3.367101 v 6.810521 c -0.002,1.26284 -0.55187,2.473121 -1.52623,3.365661 -0.97435,0.89248 -2.29468,1.39439 -3.67149,1.39569 z m -2.29898,-0.49489 h 2.29898 c 1.23383,-10e-4 2.41692,-0.45112 3.28977,-1.2508 0.87356,-0.79968 1.36537,-1.884111 1.36823,-3.015661 v -6.805551 c -0.002,-1.131611 -0.49467,-2.215981 -1.36823,-3.015661 -0.87285,-0.79974 -2.05594,-1.24948 -3.28977,-1.25079 h -2.29898 z"
     id="path64"
     inkscape:connector-curvature="0"
     style="fill:#1a1a1a;stroke-width:0.6839897" />
  <path
     d="m 185.0905,29.627542 c -0.143,0 -0.28023,-0.0521 -0.38101,-0.14496 -0.10145,-0.0928 -0.15867,-0.21872 -0.15867,-0.349941 0,-8.265633 -5.63953,-14.987017 -12.56435,-14.987017 h -7.01631 c -6.92483,0 -12.56433,6.721384 -12.56433,14.987017 0,0.131221 -0.0572,0.257141 -0.1587,0.349941 -0.10084,0.0929 -0.23804,0.14496 -0.38103,0.14496 -0.14368,0 -0.28094,-0.0521 -0.38172,-0.14496 -0.10145,-0.0928 -0.158,-0.21872 -0.158,-0.349941 0,-8.810074 6.11989,-15.976946 13.64376,-15.976946 h 7.01632 c 7.52388,0 13.64379,7.166872 13.64379,15.976946 0,0.131221 -0.0563,0.257141 -0.15813,0.349941 -0.10096,0.0929 -0.23815,0.14496 -0.38173,0.14496 z"
     id="path66"
     inkscape:connector-curvature="0"
     style="fill:#1a1a1a;stroke-width:0.6839897" />
  <path
     d="m 157.57063,46.312285 c -2.59636,0 -4.69589,-0.12376 -5.05689,-0.49497 -0.93431,-0.98992 -1.22526,-5.513711 -1.25815,-6.028441 -0.002,-0.0654 0.0222,-0.12919 0.0693,-0.17814 0.0472,-0.049 0.11366,-0.0791 0.18444,-0.0842 0.0364,-0.003 0.0728,0.001 0.10658,0.012 0.0343,0.0106 0.0658,0.0276 0.093,0.0499 0.0264,0.0223 0.0487,0.0493 0.063,0.0796 0.0152,0.0302 0.0236,0.0629 0.0236,0.0961 0.0815,1.35119 0.43749,5.018751 1.12303,5.726551 0.58263,0.49489 8.49538,0.36623 15.81336,-0.0842 0.0715,-0.002 0.14012,0.0216 0.19303,0.0647 0.0529,0.0431 0.0865,0.10314 0.0936,0.16787 0.002,0.0325 -0.002,0.0651 -0.0143,0.0959 -0.0123,0.0308 -0.0299,0.0592 -0.0537,0.0836 -0.0237,0.0243 -0.0522,0.0442 -0.0836,0.0584 -0.0321,0.0142 -0.0672,0.0225 -0.10217,0.0244 -1.57055,0.094 -7.02205,0.4108 -11.19395,0.4108 z"
     id="path68"
     inkscape:connector-curvature="0"
     style="fill:#1a1a1a;stroke-width:0.6839897" />
  <path
     d="m 167.99254,44.748265 h -5.82322 c -0.65338,0 -1.18237,0.48528 -1.18237,1.08391 0,0.59863 0.52899,1.08397 1.18237,1.08397 h 5.82322 c 0.65266,0 1.18166,-0.48534 1.18166,-1.08397 0,-0.59863 -0.529,-1.08391 -1.18166,-1.08391 z"
     id="path70"
     inkscape:connector-curvature="0"
     style="fill:#1a1a1a;stroke-width:0.6839897" />
  <path
     d="m 167.99254,47.163595 h -5.82322 c -0.38531,0 -0.75489,-0.14031 -1.02725,-0.38999 -0.27165,-0.24967 -0.42462,-0.58835 -0.42462,-0.94143 0,-0.35314 0.15297,-0.69176 0.42462,-0.94143 0.27236,-0.24968 0.64194,-0.38999 1.02725,-0.38999 h 5.82322 c 0.38531,0 0.75417,0.14031 1.02653,0.38999 0.27236,0.24967 0.42535,0.58829 0.42535,0.94143 0,0.35308 -0.15299,0.69176 -0.42535,0.94143 -0.27236,0.24968 -0.64122,0.38999 -1.02653,0.38999 z m -5.82322,-2.16788 c -0.24233,0 -0.47395,0.0881 -0.64552,0.24496 -0.17086,0.15688 -0.26664,0.36964 -0.26664,0.5915 0,0.22186 0.0958,0.43462 0.26664,0.5915 0.17157,0.1568 0.40317,0.24496 0.64552,0.24496 h 5.82322 c 0.24161,0 0.47395,-0.0882 0.6448,-0.24496 0.17156,-0.15688 0.26735,-0.36964 0.26735,-0.5915 0,-0.22186 -0.0958,-0.43462 -0.26735,-0.5915 -0.17087,-0.15687 -0.40319,-0.24496 -0.6448,-0.24496 z"
     id="path72"
     inkscape:connector-curvature="0"
     style="fill:#1a1a1a;stroke-width:0.6839897" />
  <path
     d="m 165.23462,36.482633 h -5.84539 c -0.92788,-10e-4 -1.81717,-0.34032 -2.4734,-0.94261 -0.65554,-0.60223 -1.02368,-1.41853 -1.02368,-2.269591 v -2.80637 c 0,-0.0656 0.0286,-0.1286 0.0793,-0.175 0.05,-0.0464 0.11868,-0.0724 0.19015,-0.0724 h 12.31127 c 0.0715,0 0.14011,0.026 0.19087,0.0724 0.0507,0.0464 0.0787,0.10936 0.0787,0.175 v 2.80637 c -10e-4,0.852361 -0.371,1.669391 -1.02939,2.271681 -0.65767,0.60223 -1.54909,0.94052 -2.4784,0.94052 z m -8.80275,-5.790881 v 2.55885 c 0,0.719841 0.31167,1.410221 0.86569,1.919651 0.55473,0.50949 1.30675,0.79634 2.09167,0.79765 h 5.84539 c 0.78563,-10e-4 1.53836,-0.28803 2.09381,-0.79732 0.55544,-0.5093 0.86784,-1.19968 0.86927,-1.919981 v -2.55885 z"
     id="path74"
     inkscape:connector-curvature="0"
     style="fill:#1a1a1a;stroke-width:0.6839897" />
  <path
     d="m 179.58038,36.482633 h -5.86684 c -0.9286,-10e-4 -1.8186,-0.34019 -2.47556,-0.94229 -0.65623,-0.60209 -1.02582,-1.4184 -1.02725,-2.269911 v -2.80637 c 0,-0.0656 0.0286,-0.1286 0.0793,-0.175 0.05,-0.0464 0.11868,-0.0724 0.19087,-0.0724 h 12.327 c 0.0715,0 0.14025,0.026 0.19085,0.0724 0.0508,0.0464 0.0786,0.10936 0.0786,0.175 v 2.80637 c 0,0.851061 -0.36813,1.667361 -1.02367,2.269591 -0.65551,0.60229 -1.54551,0.9413 -2.47338,0.94261 z m -8.82992,-5.790881 v 2.55885 c 0.001,0.720301 0.31382,1.410681 0.86926,1.919981 0.55545,0.50929 1.30819,0.79601 2.09382,0.79732 h 5.86684 c 0.7849,-10e-4 1.53693,-0.28816 2.09166,-0.79765 0.55473,-0.50943 0.86569,-1.19981 0.86569,-1.919651 v -2.55885 z"
     id="path76"
     inkscape:connector-curvature="0"
     style="fill:#1a1a1a;stroke-width:0.6839897" />
  <path
     d="m 170.48096,32.013222 c -0.0522,10e-4 -0.10364,-0.0124 -0.14583,-0.0396 -0.17158,-0.13744 -0.37245,-0.2409 -0.58976,-0.30393 -0.21731,-0.063 -0.4468,-0.0842 -0.6734,-0.0624 -0.0629,0.0188 -0.12002,0.0497 -0.16871,0.0908 -0.0487,0.041 -0.0865,0.091 -0.1122,0.1468 -0.0229,0.0614 -0.0715,0.11198 -0.13517,0.14071 -0.0637,0.0287 -0.13722,0.0333 -0.20443,0.0128 -0.0336,-0.01 -0.0643,-0.0251 -0.0914,-0.0458 -0.0273,-0.0206 -0.0486,-0.0459 -0.065,-0.0745 -0.0156,-0.0286 -0.0258,-0.0598 -0.0286,-0.0918 -0.002,-0.032 0.001,-0.0642 0.0123,-0.0948 0.05,-0.12709 0.13007,-0.24241 0.23446,-0.33743 0.10438,-0.0951 0.23089,-0.16748 0.37031,-0.21198 0.46393,-0.14843 1.07943,0 1.74853,0.42075 0.0472,0.03 0.0823,0.0728 0.10084,0.12238 0.0187,0.0495 0.0193,0.10321 0.002,0.15334 -0.017,0.0501 -0.0507,0.094 -0.0966,0.12539 -0.0458,0.0314 -0.10084,0.0486 -0.15799,0.0493 z"
     id="path78"
     inkscape:connector-curvature="0"
     style="fill:#1a1a1a;stroke-width:0.6839897" />
  <path
     d="m 156.16165,32.013292 h -1.72137 c -0.0715,0 -0.14011,-0.0261 -0.19088,-0.0725 -0.0507,-0.0464 -0.0793,-0.10936 -0.0793,-0.175 0,-0.0656 0.0286,-0.12861 0.0793,-0.17501 0.0507,-0.0464 0.11941,-0.0724 0.19088,-0.0724 h 1.72137 c 0.0715,0.001 0.13941,0.0277 0.18946,0.0739 0.0507,0.0461 0.0793,0.10832 0.0807,0.17357 0,0.0656 -0.0286,0.1286 -0.0793,0.175 -0.05,0.0464 -0.11868,0.0725 -0.19087,0.0725 z"
     id="path80"
     inkscape:connector-curvature="0"
     style="fill:#1a1a1a;stroke-width:0.6839897" />
  <path
     d="m 201.27128,124.46959 h -69.32112 l -6.24985,-41.546117 h 81.8267 z"
     id="path82"
     inkscape:connector-curvature="0"
     style="fill:#1a1a1a;stroke-width:0.6839897" />
  <path
     d="m 201.27128,124.73202 h -69.32112 c -0.065,0 -0.12725,-0.0216 -0.17659,-0.0602 -0.0486,-0.0393 -0.08,-0.0936 -0.0879,-0.15314 l -6.25521,-41.560507 c -0.006,-0.0694 0.0165,-0.13874 0.0648,-0.19306 0.0258,-0.0268 0.0572,-0.0484 0.0925,-0.0641 0.0353,-0.0151 0.0736,-0.0236 0.11257,-0.0249 h 81.82669 c 0.038,6.5e-4 0.0759,0.009 0.11,0.0242 0.035,0.0157 0.0651,0.0373 0.0893,0.0648 0.0275,0.0255 0.0457,0.0563 0.0572,0.0897 0.011,0.0334 0.0137,0.0687 0.009,0.1034 l -6.25001,41.546107 c -0.006,0.0622 -0.0363,0.11977 -0.0867,0.16231 -0.0501,0.0419 -0.11574,0.0654 -0.1837,0.0654 z m -69.08379,-0.49542 h 68.85218 l 6.17423,-41.080137 h -81.20592 z"
     id="path84"
     inkscape:connector-curvature="0"
     style="fill:#1a1a1a;stroke-width:0.6839897" />
  <path
     d="m 201.90321,124.46959 h -70.7301 c -0.93003,0 -1.68399,0.6911 -1.68399,1.54386 v 0.005 c 0,0.85276 0.75396,1.54451 1.68399,1.54451 h 70.7301 c 0.93005,0 1.68349,-0.69175 1.68349,-1.54451 v -0.005 c 0,-0.85276 -0.75344,-1.54386 -1.68349,-1.54386 z"
     id="path86"
     inkscape:connector-curvature="0"
     style="fill:#1a1a1a;stroke-width:0.6839897" />
  <path
     d="m 201.93538,127.81058 h -70.70293 c -0.26521,0.0124 -0.53115,-0.0242 -0.78064,-0.10864 -0.24948,-0.0844 -0.47752,-0.21466 -0.67067,-0.3822 -0.19294,-0.1682 -0.34656,-0.37042 -0.4515,-0.59425 -0.10499,-0.22382 -0.15914,-0.46531 -0.15914,-0.70943 0,-0.24411 0.0541,-0.48495 0.15914,-0.70943 0.10499,-0.22382 0.25855,-0.42605 0.4515,-0.59359 0.19316,-0.16819 0.42119,-0.29843 0.67067,-0.38285 0.24948,-0.0844 0.51541,-0.12108 0.78064,-0.10799 h 70.70293 c 0.50113,0.0242 0.97292,0.22317 1.31821,0.5576 0.34598,0.33377 0.53828,0.77618 0.53828,1.23626 0,0.46009 -0.19222,0.90315 -0.53828,1.23692 -0.34529,0.33378 -0.81708,0.53338 -1.31821,0.5576 z m -70.75655,-3.07856 c -0.19374,-0.0111 -0.38746,0.0144 -0.56974,0.0746 -0.18231,0.0602 -0.34886,0.15445 -0.49039,0.27618 -0.14083,0.12173 -0.25377,0.26833 -0.33055,0.43129 -0.0769,0.16361 -0.1166,0.339 -0.1166,0.51702 0,0.17735 0.0397,0.3534 0.1166,0.51636 0.0768,0.16296 0.18972,0.31021 0.33055,0.43194 0.14154,0.12173 0.30809,0.21532 0.49039,0.27618 0.18229,0.0602 0.37601,0.0857 0.56974,0.0746 h 70.75655 c 0.36102,-0.0203 0.69913,-0.16623 0.9465,-0.40773 0.24805,-0.24149 0.38529,-0.56021 0.38529,-0.89136 0,-0.33116 -0.13722,-0.65053 -0.38529,-0.89203 -0.2475,-0.24084 -0.58548,-0.38678 -0.9465,-0.40707 z"
     id="path88"
     inkscape:connector-curvature="0"
     style="fill:#1a1a1a;stroke-width:0.6839897" />
  <path
     d="m 198.74568,124.73202 h -67.56757 c -0.0715,0 -0.14011,-0.0262 -0.19016,-0.0726 -0.0507,-0.0465 -0.0793,-0.1093 -0.0793,-0.1754 0,-0.0654 0.0286,-0.12827 0.0793,-0.17473 0.05,-0.0465 0.11868,-0.0726 0.19016,-0.0726 h 67.56757 c 0.0715,0 0.14025,0.0262 0.19085,0.0726 0.0508,0.0465 0.0787,0.10929 0.0787,0.17473 0,0.0661 -0.0277,0.12893 -0.0787,0.1754 -0.0508,0.0465 -0.11929,0.0726 -0.19085,0.0726 z"
     id="path90"
     inkscape:connector-curvature="0"
     style="fill:#ffffff;stroke-width:0.6839897" />
  <path
     d="m 149.70722,34.651273 h -2.08382 c -0.0715,0 -0.14012,-0.026 -0.19087,-0.0725 -0.0501,-0.0464 -0.0787,-0.10936 -0.0787,-0.175 0,-0.0656 0.0286,-0.1286 0.0787,-0.175 0.0507,-0.0464 0.11941,-0.0725 0.19087,-0.0725 h 2.08382 c 0.0715,0 0.1401,0.026 0.19087,0.0725 0.05,0.0464 0.0786,0.10936 0.0786,0.175 0,0.0656 -0.0286,0.1286 -0.0786,0.175 -0.0507,0.0464 -0.11941,0.0725 -0.19087,0.0725 z"
     id="path92"
     inkscape:connector-curvature="0"
     style="fill:#d1d3d4;stroke-width:0.6839897" />
  <path
     d="m 149.70722,36.482633 h -2.08382 c -0.0715,0 -0.14012,-0.0261 -0.19087,-0.0725 -0.0501,-0.0464 -0.0787,-0.10936 -0.0787,-0.175 0,-0.0656 0.0286,-0.1286 0.0787,-0.175 0.0507,-0.0464 0.11941,-0.0725 0.19087,-0.0725 h 2.08382 c 0.0715,0 0.1401,0.026 0.19087,0.0725 0.05,0.0464 0.0786,0.10936 0.0786,0.175 0,0.0656 -0.0286,0.1286 -0.0786,0.175 -0.0507,0.0464 -0.11941,0.0725 -0.19087,0.0725 z"
     id="path94"
     inkscape:connector-curvature="0"
     style="fill:#d1d3d4;stroke-width:0.6839897" />
  <path
     d="m 166.31405,103.0231 c -0.1265,-0.15641 -0.2988,-0.27618 -0.49682,-0.34621 -0.18872,-0.0687 -0.39032,-0.10602 -0.59334,-0.10863 -0.23375,-10e-4 -0.46465,0.0406 -0.67982,0.12369 -0.19946,0.0812 -0.37816,0.1983 -0.52684,0.34489 -0.14799,0.14595 -0.26307,0.31807 -0.3367,0.50655 -0.0815,0.20419 -0.12161,0.42082 -0.11941,0.6381 -0.002,0.22382 0.0358,0.44633 0.11366,0.65838 0.0744,0.18259 0.18587,0.35079 0.32954,0.49477 0.1437,0.14201 0.31811,0.25523 0.51256,0.3318 0.21159,0.0818 0.43964,0.12173 0.66911,0.11846 0.23804,0.004 0.47323,-0.0452 0.68554,-0.14332 0.19017,-0.0844 0.35528,-0.21008 0.48039,-0.3665 l 0.68554,0.4411 c -0.20731,0.24215 -0.47323,0.43718 -0.77776,0.56872 -0.33885,0.14071 -0.707,0.21008 -1.07943,0.20289 -0.35386,0.003 -0.70557,-0.0563 -1.03583,-0.17278 -0.30453,-0.11191 -0.58047,-0.28011 -0.80993,-0.49542 -0.2316,-0.20812 -0.41534,-0.45747 -0.53971,-0.73234 -0.12802,-0.29908 -0.19232,-0.61846 -0.18874,-0.94045 -0.004,-0.32723 0.0637,-0.65249 0.19946,-0.95485 0.12443,-0.27422 0.30809,-0.5216 0.53972,-0.72775 0.23947,-0.20223 0.52041,-0.35864 0.82637,-0.46074 0.33097,-0.10733 0.67982,-0.161 1.03082,-0.15838 0.16085,-6.5e-4 0.32169,0.0124 0.48038,0.0399 0.16443,0.0255 0.32526,0.0668 0.48039,0.1237 0.15298,0.0543 0.30023,0.12434 0.43677,0.20811 0.13158,0.0818 0.24805,0.18194 0.34527,0.29647 z"
     id="path96"
     inkscape:connector-curvature="0"
     style="fill:#ffffff;stroke-width:0.6839897" />
  <path
     d="m 170.0163,102.90923 c -0.10304,-0.11519 -0.23375,-0.20681 -0.38317,-0.26702 -0.15369,-0.0707 -0.32382,-0.10799 -0.49611,-0.10864 -0.10218,-6.6e-4 -0.20375,0.0105 -0.30238,0.0347 -0.0966,0.019 -0.18801,0.0543 -0.27021,0.1034 -0.0807,0.0491 -0.14869,0.11322 -0.19945,0.18848 -0.0543,0.0838 -0.0807,0.17998 -0.0758,0.27684 -0.002,0.0884 0.0192,0.17539 0.065,0.25262 0.0501,0.0713 0.11367,0.1335 0.18874,0.18324 0.0893,0.0537 0.18515,0.0969 0.28592,0.12893 l 0.37245,0.11322 c 0.15656,0.0452 0.31312,0.0942 0.48038,0.1538 0.16086,0.0582 0.31311,0.13482 0.45322,0.22775 0.14011,0.0975 0.25592,0.22055 0.34027,0.36126 0.0923,0.16885 0.13654,0.35602 0.12939,0.5445 0.007,0.21336 -0.0416,0.4254 -0.14012,0.61846 -0.0908,0.1682 -0.21945,0.31676 -0.37814,0.43587 -0.16014,0.11715 -0.34314,0.20615 -0.53972,0.26178 -0.21873,0.0602 -0.44608,0.0903 -0.67411,0.0897 -0.3124,-0.001 -0.62121,-0.055 -0.91216,-0.15837 -0.28809,-0.10341 -0.54114,-0.27422 -0.73416,-0.49543 l 0.60978,-0.52422 c 0.12292,0.15184 0.2838,0.27357 0.46965,0.35603 0.18159,0.0818 0.38031,0.12565 0.58261,0.12893 0.10218,0 0.20372,-0.0111 0.30239,-0.0347 0.1001,-0.0196 0.19517,-0.0582 0.27879,-0.11257 0.0829,-0.0543 0.1537,-0.12434 0.20733,-0.20419 0.0572,-0.0916 0.0851,-0.19633 0.0807,-0.3017 0.002,-0.1021 -0.0299,-0.20288 -0.0914,-0.28731 -0.0622,-0.0818 -0.14296,-0.14987 -0.23804,-0.1983 -0.10865,-0.0635 -0.2266,-0.11387 -0.35028,-0.14856 l -0.42677,-0.12827 c -0.14725,-0.0465 -0.29308,-0.0956 -0.43676,-0.14856 -0.14227,-0.0582 -0.27379,-0.13678 -0.3889,-0.23233 -0.11795,-0.0988 -0.21373,-0.21859 -0.28094,-0.35145 -0.0764,-0.16426 -0.11293,-0.34162 -0.10792,-0.52029 -0.007,-0.20157 0.0458,-0.40118 0.15155,-0.57853 0.10218,-0.15707 0.23804,-0.29386 0.39889,-0.40119 0.16585,-0.10405 0.34813,-0.1839 0.53973,-0.23756 0.21015,-0.0491 0.42604,-0.074 0.64264,-0.074 0.25377,0.001 0.50542,0.0419 0.74489,0.11846 0.24233,0.0733 0.46465,0.19306 0.65266,0.35144 z"
     id="path98"
     inkscape:connector-curvature="0"
     style="fill:#ffffff;stroke-width:0.6839897" />
  <path
     d="m 166.61072,109.84383 c -1.21811,-0.003 -2.40835,-0.33704 -3.41987,-0.96009 -1.01152,-0.62238 -1.79859,-1.50655 -2.26252,-2.53928 -0.46396,-1.03338 -0.58405,-2.16952 -0.34457,-3.26508 0.23947,-1.0949 0.82781,-2.1008 1.69064,-2.89007 0.86284,-0.788623 1.96086,-1.325923 3.15609,-1.542553 1.19524,-0.21728 2.43338,-0.10406 3.55927,0.32396 1.12519,0.42866 2.08667,1.153153 2.76292,2.081823 0.67697,0.92932 1.03798,2.02161 1.03798,3.13876 -7.3e-4,0.74346 -0.16085,1.47973 -0.47252,2.16559 -0.31097,0.68653 -0.76633,1.31022 -1.34037,1.8351 -0.5733,0.52487 -1.25456,0.9411 -2.00374,1.22448 -0.74989,0.28338 -1.55267,0.42867 -2.36331,0.42736 z m 0,-10.809633 c -1.11161,0.003 -2.19747,0.30759 -3.11964,0.87631 -0.92287,0.568733 -1.64131,1.375013 -2.0645,2.317433 -0.42319,0.94307 -0.53186,1.97907 -0.31311,2.97842 0.21873,1.00001 0.7556,1.91756 1.54267,2.6368 0.78705,0.7199 1.78928,1.21009 2.87944,1.40773 1.09087,0.19765 2.22105,0.0949 3.24758,-0.29581 1.02654,-0.39136 1.90366,-1.05236 2.52131,-1.89988 0.61693,-0.84752 0.94648,-1.84426 0.94648,-2.8639 -0.002,-1.36912 -0.59834,-2.68195 -1.65633,-3.64924 -1.05728,-0.966633 -2.49056,-1.509173 -3.9839,-1.507863 z"
     id="path100"
     inkscape:connector-curvature="0"
     style="fill:#ffffff;stroke-width:0.6839897" />
</svg>
