<?xml version="1.0" encoding="UTF-8" standalone="no"?>
<svg
   xmlns:dc="http://purl.org/dc/elements/1.1/"
   xmlns:cc="http://creativecommons.org/ns#"
   xmlns:rdf="http://www.w3.org/1999/02/22-rdf-syntax-ns#"
   xmlns:svg="http://www.w3.org/2000/svg"
   xmlns="http://www.w3.org/2000/svg"
   xmlns:sodipodi="http://sodipodi.sourceforge.net/DTD/sodipodi-0.dtd"
   xmlns:inkscape="http://www.inkscape.org/namespaces/inkscape"
   width="320"
   height="130"
   viewBox="0 0 320 130"
   version="1.1"
   id="svg93"
   sodipodi:docname="wallet.svg"
   inkscape:version="0.92.5 (2060ec1f9f, 2020-04-08)"
   style="fill:none">
  <metadata
     id="metadata97">
    <rdf:RDF>
      <cc:Work
         rdf:about="">
        <dc:format>image/svg+xml</dc:format>
        <dc:type
           rdf:resource="http://purl.org/dc/dcmitype/StillImage" />
        <dc:title></dc:title>
      </cc:Work>
    </rdf:RDF>
  </metadata>
  <sodipodi:namedview
     pagecolor="#ffffff"
     bordercolor="#666666"
     borderopacity="1"
     objecttolerance="10"
     gridtolerance="10"
     guidetolerance="10"
     inkscape:pageopacity="0"
     inkscape:pageshadow="2"
     inkscape:window-width="1366"
     inkscape:window-height="716"
     id="namedview95"
     showgrid="false"
     inkscape:zoom="1.5225806"
     inkscape:cx="148.60033"
     inkscape:cy="77.499998"
     inkscape:window-x="0"
     inkscape:window-y="0"
     inkscape:window-maximized="1"
     inkscape:current-layer="svg93" />
  <g
     clip-path="url(#clip0)"
     id="g86"
     transform="matrix(0.56577086,0,0,0.64516129,117.33444,12.92373)">
    <path
       d="m 73.6191,76.7105 c 19.1395,0 34.6549,-16.8804 34.6549,-37.7035 0,-20.823 -15.5154,-37.70341 -34.6549,-37.70341 -19.1396,0 -34.6552,16.88041 -34.6552,37.70341 0,20.8231 15.5156,37.7035 34.6552,37.7035 z"
       id="path2"
       inkscape:connector-curvature="0"
       style="fill:#f5e48f" />
    <path
       d="m 107.407,38.9977 c 0,8.7244 -2.78,17.1791 -7.8677,23.9231 -5.0873,6.7441 -12.1667,11.3603 -20.0317,13.062 -7.8651,1.7016 -16.0292,0.3835 -23.1011,-3.7298 -7.072,-4.1133 -12.6141,-10.7673 -15.682,-18.828 2.2843,-1.3978 4.8176,-2.2462 7.429,-2.488 2.6113,-0.2418 5.24,0.1286 7.7085,1.0864 3.6631,1.453 6.8237,4.1721 10.5125,5.555 7.9832,2.9948 17.6068,-1.4436 21.5447,-9.5683 C 91.8571,39.8854 90.0663,29.0789 84.007,22.6502 80.9194,19.3797 76.9729,17.2026 72.932,15.558 65.3212,12.4856 57.2275,11.0788 49.1157,11.4186 54.0526,6.40942 60.2267,3.07806 66.8797,1.83363 73.5328,0.589207 80.375,1.48591 86.5661,4.4136 c 6.1911,2.92769 11.4615,7.7589 15.1639,13.9002 3.702,6.1414 5.675,13.3254 5.677,20.6699 z"
       id="path4"
       inkscape:connector-curvature="0"
       style="opacity:0.6;fill:#dec378" />
    <path
       d="m 72.7688,5.24676 c 8.8591,-4.6e-4 17.382,3.69031 23.8177,10.31404 6.4355,6.6238 10.2955,15.6774 10.7855,25.301 0.035,-0.6915 0.056,-1.4016 0.056,-2.0884 0,-9.9996 -3.651,-19.5896 -10.15,-26.6604 C 90.7789,5.04226 81.9642,1.06995 72.7731,1.06995 c -9.1911,0 -18.0058,3.97231 -24.5049,11.04305 -6.4991,7.0708 -10.1503,16.6608 -10.1503,26.6604 0,0.7008 0,1.4016 0.0558,2.0884 C 38.6644,31.2399 42.5228,22.1875 48.9566,15.564 55.3904,8.94052 63.9112,5.24868 72.7688,5.24676 Z"
       id="path6"
       inkscape:connector-curvature="0"
       style="opacity:0.5;fill:#e1d2d5" />
    <path
       d="M 72.7688,71.4824 C 63.9111,71.483 55.3894,67.7935 48.954,61.1718 42.5186,54.55 38.658,45.4986 38.1651,35.8767 c -0.0343,0.6915 -0.0558,1.4016 -0.0558,2.0884 0,9.9996 3.6512,19.5896 10.1503,26.6604 6.4991,7.0708 15.3138,11.0431 24.5049,11.0431 9.1911,0 18.0058,-3.9723 24.5049,-11.0431 6.4996,-7.0708 10.1506,-16.6608 10.1506,-26.6604 0,-0.7008 0,-1.4016 -0.056,-2.0884 -0.493,9.6203 -4.352,18.6703 -10.7858,25.2919 -6.4336,6.6215 -14.9532,10.312 -23.8094,10.3138 z"
       id="path8"
       inkscape:connector-curvature="0"
       style="opacity:0.3;fill:#ffffff" />
    <path
       d="m 49.1543,44.2023 h -9.9242 v -2.7845 h 7.3648 V 35.26 h 2.5594 z"
       id="path10"
       inkscape:connector-curvature="0"
       style="fill:#426572" />
    <path
       d="m 47.793,36.9373 c -0.7788,0 -1.5402,-0.2512 -2.1878,-0.722 -0.6476,-0.4708 -1.1523,-1.1399 -1.4503,-1.9227 -0.2981,-0.7829 -0.3761,-1.6443 -0.2241,-2.4754 0.1519,-0.831 0.527,-1.5944 1.0777,-2.1936 0.5507,-0.5992 1.2524,-1.0072 2.0163,-1.1725 0.7638,-0.1653 1.5556,-0.0805 2.2752,0.2438 0.7195,0.3243 1.3345,0.8734 1.7672,1.5779 0.4327,0.7046 0.6637,1.5329 0.6637,2.3802 -0.0011,1.1359 -0.4164,2.2249 -1.1546,3.0281 -0.7383,0.8032 -1.7393,1.255 -2.7833,1.2562 z m 0,-5.7793 c -0.2726,0 -0.5392,0.0879 -0.7658,0.2527 -0.2267,0.1648 -0.4034,0.3991 -0.5077,0.6731 -0.1044,0.274 -0.1317,0.5756 -0.0785,0.8665 0.0532,0.2909 0.1845,0.5581 0.3773,0.7679 0.1928,0.2097 0.4384,0.3526 0.7058,0.4104 0.2674,0.0579 0.5445,0.0282 0.7964,-0.0853 0.2519,-0.1135 0.4672,-0.3057 0.6187,-0.5524 0.1514,-0.2466 0.2323,-0.5366 0.2323,-0.8332 5e-4,-0.1973 -0.0347,-0.3928 -0.1037,-0.5753 C 48.9988,31.8999 48.8973,31.734 48.7693,31.5942 48.6412,31.4545 48.489,31.3436 48.3215,31.2679 48.154,31.1923 47.9744,31.1533 47.793,31.1533 Z"
       id="path12"
       inkscape:connector-curvature="0"
       style="fill:#426572" />
    <path
       d="M 78.5575,13.3388 H 69.2346 V 1.04663 h 2.5594 v 9.50767 h 6.7635 z"
       id="path14"
       inkscape:connector-curvature="0"
       style="fill:#426572" />
    <path
       d="m 81.336,16.6091 c -0.8619,-9e-4 -1.7042,-0.2798 -2.4204,-0.8014 -0.7162,-0.5217 -1.2742,-1.2626 -1.6035,-2.1292 -0.3292,-0.8666 -0.4149,-1.8199 -0.2463,-2.7395 0.1687,-0.9196 0.5842,-1.7641 1.1939,-2.42683 0.6098,-0.66273 1.3864,-1.11391 2.2318,-1.29651 0.8454,-0.1826 1.7216,-0.08842 2.5178,0.27064 0.7962,0.35906 1.4767,0.96687 1.9555,1.74661 0.4787,0.77969 0.7343,1.69639 0.7343,2.63409 -0.0012,1.2581 -0.4614,2.4643 -1.2795,3.3535 -0.8181,0.8892 -1.9272,1.3886 -3.0836,1.3886 z m 0,-6.70435 c -0.3559,0 -0.7037,0.11485 -0.9996,0.32995 -0.2959,0.2151 -0.5266,0.5208 -0.6627,0.8785 -0.1362,0.3577 -0.1719,0.7513 -0.1024,1.131 0.0694,0.3798 0.2408,0.7286 0.4924,1.0024 0.2516,0.2737 0.5723,0.4602 0.9213,0.5357 0.349,0.0755 0.7108,0.0368 1.0396,-0.1114 0.3288,-0.1482 0.6098,-0.3991 0.8075,-0.721 0.1977,-0.3219 0.3032,-0.7004 0.3032,-1.0876 -0.0011,-0.5188 -0.191,-1.016 -0.5282,-1.3828 C 82.2699,10.1126 81.8129,9.90598 81.336,9.90475 Z"
       id="path16"
       inkscape:connector-curvature="0"
       style="fill:#426572" />
    <path
       d="m 98.801,48.5848 h -2.5594 v -9.0965 h 10.1004 v 2.7845 h -7.541 z"
       id="path18"
       inkscape:connector-curvature="0"
       style="fill:#426572" />
    <path
       d="m 97.6072,55.5974 c -0.789,0 -1.5603,-0.2545 -2.2164,-0.7315 -0.656,-0.4769 -1.1674,-1.1547 -1.4693,-1.9478 -0.302,-0.7931 -0.381,-1.6658 -0.227,-2.5078 0.1539,-0.8419 0.5338,-1.6153 1.0918,-2.2223 0.5579,-0.607 1.2687,-1.0204 2.0426,-1.1879 0.7739,-0.1674 1.576,-0.0815 2.305,0.247 0.729,0.3285 1.3521,0.8849 1.7901,1.5986 0.439,0.7138 0.673,1.553 0.673,2.4114 -0.002,1.1507 -0.422,2.254 -1.17,3.0677 -0.748,0.8137 -1.7621,1.2714 -2.8198,1.2726 z m 0,-5.9008 c -0.2826,9e-4 -0.5587,0.093 -0.7933,0.2645 -0.2346,0.1715 -0.4172,0.4148 -0.5248,0.6992 -0.1075,0.2843 -0.1353,0.597 -0.0796,0.8985 0.0557,0.3015 0.1922,0.5783 0.3924,0.7954 0.2001,0.2171 0.4549,0.3648 0.7322,0.4244 0.2773,0.0597 0.5646,0.0286 0.8256,-0.0893 0.2611,-0.1179 0.4842,-0.3173 0.6411,-0.573 0.157,-0.2558 0.2407,-0.5564 0.2407,-0.8639 6e-4,-0.2053 -0.0361,-0.4087 -0.1079,-0.5986 -0.0719,-0.1898 -0.1774,-0.3624 -0.3107,-0.5078 -0.1332,-0.1454 -0.2915,-0.2608 -0.4658,-0.3395 -0.1743,-0.0787 -0.3612,-0.1192 -0.5499,-0.1192 z"
       id="path20"
       inkscape:connector-curvature="0"
       style="fill:#426572" />
    <path
       d="m 75.3798,76.7291 h -2.5595 v -7.9098 h -5.5826 v -2.7845 h 8.1421 z"
       id="path22"
       inkscape:connector-curvature="0"
       style="fill:#426572" />
    <path
       d="m 64.8629,71.7487 c -0.7729,0 -1.5284,-0.2493 -2.1711,-0.7165 -0.6426,-0.4672 -1.1435,-1.1312 -1.4393,-1.908 -0.2957,-0.7769 -0.3731,-1.6318 -0.2223,-2.4565 0.1508,-0.8247 0.5229,-1.5823 1.0695,-2.1768 0.5465,-0.5946 1.2428,-0.9996 2.0008,-1.1636 0.7581,-0.164 1.5438,-0.0799 2.2579,0.2419 0.714,0.3218 1.3244,0.8668 1.7538,1.5659 0.4294,0.6992 0.6585,1.5212 0.6585,2.3621 -0.0011,1.1272 -0.4132,2.2079 -1.1458,3.0049 -0.7326,0.7971 -1.7259,1.2454 -2.762,1.2466 z m 0,-5.7186 c -0.2667,0 -0.5274,0.0861 -0.7491,0.2473 -0.2218,0.1612 -0.3946,0.3903 -0.4967,0.6584 -0.102,0.268 -0.1287,0.563 -0.0767,0.8476 0.052,0.2845 0.1805,0.5459 0.369,0.7511 0.1886,0.2052 0.4289,0.3449 0.6904,0.4015 0.2616,0.0566 0.5327,0.0276 0.7791,-0.0835 0.2464,-0.111 0.457,-0.299 0.6052,-0.5403 0.1481,-0.2413 0.2272,-0.5249 0.2272,-0.815 0,-0.3891 -0.142,-0.7623 -0.3949,-1.0374 -0.2529,-0.2751 -0.5959,-0.4297 -0.9535,-0.4297 z"
       id="path24"
       inkscape:connector-curvature="0"
       style="fill:#426572" />
    <path
       d="m 84.1917,38.7781 c -0.8487,-0.6291 -1.7985,-1.0792 -2.7999,-1.3269 0.7397,-0.4622 1.4031,-1.056 1.9625,-1.7567 0.509,-0.8904 0.818,-1.8988 0.9018,-2.9434 0.0472,-0.7054 0.1589,-3.6675 -1.9625,-5.3728 -1.6404,-1.3175 -3.5214,-1.8408 -6.0421,-2.0137 v -5.9802 h -3.3882 v 5.9055 h -2.5766 v -5.9055 h -3.384 v 5.9055 h -6.6562 v 3.8264 h 1.9582 c 0.5325,0 1.4816,0.0654 1.8852,0.556 0.4037,0.4905 0.4767,0.7475 0.4767,1.7053 0,0.9577 0,14.8804 0,15.2449 0.0131,0.1997 -0.0109,0.4004 -0.0707,0.5898 -0.0598,0.1894 -0.154,0.3638 -0.2771,0.5128 -0.2835,0.2943 -0.5712,0.3597 -1.2497,0.3597 h -2.0269 l -0.6957,4.4244 h 6.6605 v 5.8915 h 3.3839 v -5.8868 h 2.5766 v 5.8868 h 3.3883 v -5.9896 c 0.8588,-0.056 1.6919,-0.1261 2.1471,-0.1962 1.8531,-0.1774 3.6368,-0.8516 5.1919,-1.9623 2.0398,-1.5511 2.4993,-3.9759 2.5465,-6.4194 0.0472,-2.4434 -0.7987,-4.1207 -1.9496,-5.0551 z M 70.2824,29.434 c 0,0 1.0778,-0.1028 2.1471,-0.0841 1.1449,-0.0125 2.2843,0.1736 3.3754,0.5513 1.3913,0.4672 2.2158,1.6025 2.2459,2.9434 0.0406,0.5717 -0.0761,1.1436 -0.3354,1.6429 -0.2593,0.4992 -0.6493,0.9031 -1.1204,1.1603 -1.0877,0.5876 -2.2814,0.9067 -3.4956,0.9344 -1.2324,0.0514 -2.817,0 -2.817,0 z m 7.5709,17.6323 c -1.2093,0.5875 -2.508,0.9264 -3.8306,0.9998 -1.503,0.1215 -3.7489,0.0701 -3.7489,0.0701 v -7.9051 c 0,0 2.1471,-0.1215 3.8305,0 1.2807,0.0698 2.5398,0.3862 3.7189,0.9344 0.5143,0.2626 0.9496,0.6784 1.2555,1.1992 0.306,0.5207 0.4701,1.1252 0.4732,1.7432 0.0031,0.6181 -0.1547,1.2244 -0.4554,1.7489 -0.3006,0.5244 -0.7317,0.9454 -1.2432,1.2142 z"
       id="path26"
       inkscape:connector-curvature="0"
       style="fill:#426572" />
    <path
       d="m 95.606,19.5432 c 2.9593,4.0703 4.972,8.8577 5.866,13.9554 0.146,0.8784 1.383,0.5093 1.233,-0.369 -0.951,-5.3291 -3.0725,-10.3288 -6.1843,-14.5722 -0.5024,-0.7055 -1.4042,0.285 -0.9061,0.9858 z"
       id="path28"
       inkscape:connector-curvature="0"
       style="fill:#ffffff" />
    <path
       d="m 89.7142,13.1612 c 1.4235,1.1651 2.7356,2.483 3.9165,3.9339 0.5668,0.6541 1.4686,-0.3317 0.9061,-0.9858 -1.2597,-1.532 -2.6582,-2.9219 -4.1741,-4.1488 -0.6742,-0.5186 -1.3141,0.6915 -0.6442,1.2007 z"
       id="path30"
       inkscape:connector-curvature="0"
       style="fill:#ffffff" />
    <path
       d="M 72.421,79.0558 C 65.2353,79.0521 58.2119,76.7305 52.2389,72.3844 46.266,68.0383 41.6116,61.8629 38.8643,54.6391 36.117,47.4153 35.4001,39.4675 36.8044,31.8005 38.2087,24.1335 41.6709,17.0916 46.7535,11.5653 51.8361,6.03891 58.3106,2.27625 65.3586,0.753006 c 7.048,-1.523241 14.3528,-0.7386531 20.991,2.254564 6.6381,2.99321 12.3115,8.06063 16.3024,14.56153 3.991,6.5009 6.121,14.1434 6.12,21.9612 -0.011,10.483 -3.845,20.5329 -10.6605,27.9433 -6.8154,7.4105 -16.055,11.5761 -25.6905,11.5822 z m 0,-75.40688 c -6.523,0 -12.8994,2.1044 -18.323,6.0471 -5.4236,3.94268 -9.6508,9.54658 -12.147,16.10308 -2.4962,6.5564 -3.1493,13.771 -1.8768,20.7313 1.2726,6.9603 4.4137,13.3537 9.0261,18.3718 4.6124,5.0181 10.4889,8.4355 16.8865,9.82 6.3976,1.3845 13.0288,0.6739 19.0552,-2.0419 6.0264,-2.7158 11.1772,-7.3148 14.8012,-13.2154 3.6238,-5.9007 5.5578,-12.838 5.5578,-19.9346 C 105.392,30.017 101.915,20.8962 95.7316,14.1693 89.5485,7.44234 81.1651,3.65881 72.421,3.64892 Z"
       id="path32"
       inkscape:connector-curvature="0"
       style="fill:#426572" />
    <path
       d="m 99.7243,77.2291 c 19.1397,0 34.6547,-16.8805 34.6547,-37.7035 0,-20.823 -15.515,-37.70346 -34.6547,-37.70346 -19.1395,0 -34.6552,16.88046 -34.6552,37.70346 0,20.823 15.5157,37.7035 34.6552,37.7035 z"
       id="path34"
       inkscape:connector-curvature="0"
       style="fill:#f5e48f" />
    <path
       d="m 133.512,39.521 c 0,8.7245 -2.78,17.1791 -7.867,23.9231 -5.088,6.7441 -12.167,11.3603 -20.032,13.062 -7.8653,1.7016 -16.0294,0.3835 -23.1013,-3.7298 -7.0719,-4.1133 -12.614,-10.7673 -15.6819,-18.828 2.2843,-1.3978 4.8176,-2.2462 7.4289,-2.488 2.6114,-0.2418 5.24,0.1287 7.7086,1.0864 3.663,1.453 6.8237,4.1721 10.5125,5.555 7.9832,2.9948 17.6072,-1.4436 21.5442,-9.5683 3.938,-8.1247 2.148,-18.9312 -3.912,-25.3599 -3.087,-3.2705 -7.034,-5.4476 -11.0748,-7.0922 -7.6108,-3.0724 -15.7045,-4.4792 -23.8163,-4.1394 4.9369,-5.00917 11.111,-8.34053 17.7641,-9.58495 6.653,-1.24443 13.495,-0.34773 19.686,2.57996 6.191,2.9277 11.462,7.75889 15.164,13.90019 3.703,6.1414 5.676,13.3254 5.677,20.6699 z"
       id="path36"
       inkscape:connector-curvature="0"
       style="opacity:0.6;fill:#dec378" />
    <path
       d="m 98.874,5.77008 c 8.859,-4.7e-4 17.382,3.6903 23.818,10.31402 6.435,6.6238 10.295,15.6775 10.786,25.301 0.034,-0.6914 0.056,-1.4016 0.056,-2.0884 0,-9.9996 -3.652,-19.5896 -10.151,-26.6604 C 116.884,5.56558 108.069,1.59326 98.8783,1.59326 c -9.1911,0 -18.0058,3.97232 -24.5049,11.04304 -6.4991,7.0708 -10.1503,16.6608 -10.1503,26.6604 0,0.7008 0,1.4016 0.0558,2.0884 C 64.7695,31.7632 68.628,22.7108 75.0618,16.0873 81.4956,9.46384 90.0164,5.772 98.874,5.77008 Z"
       id="path38"
       inkscape:connector-curvature="0"
       style="opacity:0.5;fill:#e1d2d5" />
    <path
       d="M 98.874,72.0103 C 90.0149,72.0108 81.492,68.32 75.0564,61.6963 68.6207,55.0725 64.7611,46.0188 64.2704,36.3953 c -0.0344,0.6914 -0.0559,1.4016 -0.0559,2.0884 0,4.9513 0.8964,9.8541 2.638,14.4285 1.7416,4.5744 4.2943,8.7308 7.5123,12.2318 3.218,3.5011 7.0384,6.2784 11.243,8.1731 4.2045,1.8948 8.711,2.87 13.2619,2.87 4.5513,0 9.0573,-0.9752 13.2623,-2.87 4.204,-1.8947 8.025,-4.672 11.243,-8.1731 3.218,-3.501 5.77,-7.6574 7.512,-12.2318 1.742,-4.5744 2.638,-9.4772 2.638,-14.4285 0,-0.7008 0,-1.4016 -0.056,-2.0884 -0.49,9.6219 -4.349,18.6743 -10.783,25.2978 -6.434,6.6235 -14.954,10.3153 -23.812,10.3172 z"
       id="path40"
       inkscape:connector-curvature="0"
       style="opacity:0.3;fill:#ffffff" />
    <path
       d="m 75.2552,44.721 h -9.9199 v -2.7799 h 7.3648 v -6.1578 h 2.5551 z"
       id="path42"
       inkscape:connector-curvature="0"
       style="fill:#426572" />
    <path
       d="m 73.9111,37.4559 c -0.7787,-9e-4 -1.5396,-0.253 -2.1866,-0.7243 -0.647,-0.4713 -1.1511,-1.1408 -1.4485,-1.9237 -0.2974,-0.7829 -0.3748,-1.6442 -0.2223,-2.475 0.1524,-0.8307 0.5278,-1.5937 1.0787,-2.1924 0.5509,-0.5987 1.2525,-1.0063 2.0163,-1.1712 0.7638,-0.1649 1.5553,-0.0798 2.2746,0.2446 0.7193,0.3244 1.3341,0.8735 1.7666,1.578 0.4325,0.7044 0.6634,1.5326 0.6634,2.3797 -0.0012,1.1367 -0.417,2.2264 -1.1562,3.0297 -0.7392,0.8033 -1.7412,1.2546 -2.786,1.2546 z m 0,-5.7794 c -0.2734,-0.0027 -0.5413,0.083 -0.7698,0.2463 -0.2285,0.1633 -0.4071,0.3968 -0.5133,0.6709 -0.1062,0.274 -0.1351,0.5762 -0.083,0.8682 0.052,0.292 0.1827,0.5605 0.3754,0.7714 0.1927,0.211 0.4387,0.3549 0.7067,0.4134 0.2681,0.0584 0.546,0.0289 0.7986,-0.0849 0.2525,-0.1138 0.4683,-0.3067 0.6198,-0.5543 0.1516,-0.2475 0.232,-0.5385 0.2312,-0.8359 -0.0011,-0.3945 -0.1451,-0.7727 -0.4007,-1.0525 -0.2556,-0.2799 -0.6023,-0.4389 -0.9649,-0.4426 z"
       id="path44"
       inkscape:connector-curvature="0"
       style="fill:#426572" />
    <path
       d="M 104.663,13.862 H 95.3398 V 1.56982 h 2.5594 v 9.50758 h 6.7638 z"
       id="path46"
       inkscape:connector-curvature="0"
       style="fill:#426572" />
    <path
       d="m 107.441,17.1325 c -0.862,0 -1.705,-0.2782 -2.421,-0.7992 -0.717,-0.5211 -1.276,-1.2617 -1.606,-2.1282 -0.33,-0.8665 -0.416,-1.82 -0.248,-2.7399 0.168,-0.9199 0.583,-1.76487 1.193,-2.42807 0.61,-0.66319 1.386,-1.11484 2.232,-1.29782 0.845,-0.18297 1.722,-0.08906 2.518,0.26986 0.797,0.35892 1.477,0.96673 1.956,1.74657 0.479,0.77986 0.735,1.69666 0.735,2.63456 -10e-4,1.2573 -0.461,2.4628 -1.278,3.3519 -0.817,0.889 -1.925,1.389 -3.081,1.3903 z m 0,-6.7044 c -0.356,0 -0.704,0.1148 -1,0.3299 -0.295,0.2151 -0.526,0.5208 -0.662,0.8785 -0.136,0.3577 -0.172,0.7513 -0.103,1.1311 0.07,0.3797 0.241,0.7285 0.493,1.0023 0.251,0.2738 0.572,0.4602 0.921,0.5357 0.349,0.0756 0.711,0.0368 1.04,-0.1114 0.328,-0.1481 0.61,-0.399 0.807,-0.721 0.198,-0.3219 0.303,-0.7004 0.303,-1.0875 -10e-4,-0.5188 -0.191,-1.0161 -0.528,-1.3829 -0.337,-0.3669 -0.794,-0.5735 -1.271,-0.5747 z"
       id="path48"
       inkscape:connector-curvature="0"
       style="fill:#426572" />
    <path
       d="m 124.906,49.108 h -2.559 v -9.0965 h 10.1 v 2.7845 h -7.541 z"
       id="path50"
       inkscape:connector-curvature="0"
       style="fill:#426572" />
    <path
       d="m 123.691,56.1114 c -0.789,0.0028 -1.562,-0.2493 -2.22,-0.7243 -0.657,-0.475 -1.171,-1.1516 -1.475,-1.9442 -0.304,-0.7926 -0.385,-1.6655 -0.233,-2.5082 0.153,-0.8427 0.531,-1.6174 1.088,-2.226 0.557,-0.6086 1.267,-1.0238 2.041,-1.1929 0.774,-0.1691 1.577,-0.0847 2.307,0.2427 0.73,0.3274 1.354,0.8829 1.793,1.5964 0.44,0.7134 0.675,1.5527 0.675,2.4115 0,1.1492 -0.418,2.2515 -1.163,3.0658 -0.745,0.8143 -1.757,1.2743 -2.813,1.2792 z m 0,-5.9008 c -0.283,10e-4 -0.559,0.093 -0.793,0.2645 -0.235,0.1715 -0.418,0.4148 -0.525,0.6992 -0.108,0.2843 -0.135,0.597 -0.08,0.8985 0.056,0.3015 0.192,0.5783 0.393,0.7954 0.2,0.2171 0.455,0.3648 0.732,0.4245 0.277,0.0596 0.564,0.0285 0.825,-0.0894 0.261,-0.1178 0.485,-0.3173 0.642,-0.573 0.156,-0.2558 0.24,-0.5564 0.24,-0.8639 -0.001,-0.413 -0.153,-0.8087 -0.421,-1.1004 -0.269,-0.2916 -0.633,-0.4554 -1.013,-0.4554 z"
       id="path52"
       inkscape:connector-curvature="0"
       style="fill:#426572" />
    <path
       d="m 101.485,77.2478 h -2.5595 v -7.9052 h -5.5826 v -2.7845 h 8.1421 z"
       id="path54"
       inkscape:connector-curvature="0"
       style="fill:#426572" />
    <path
       d="m 90.9681,72.2721 c -0.7729,0 -1.5284,-0.2494 -2.171,-0.7166 -0.6427,-0.4671 -1.1436,-1.1311 -1.4393,-1.908 -0.2958,-0.7769 -0.3732,-1.6317 -0.2224,-2.4565 0.1508,-0.8247 0.523,-1.5822 1.0695,-2.1768 0.5465,-0.5946 1.2428,-0.9995 2.0009,-1.1636 0.758,-0.164 1.5437,-0.0798 2.2578,0.242 0.7141,0.3217 1.3244,0.8667 1.7538,1.5658 0.4294,0.6992 0.6586,1.5212 0.6586,2.3621 -0.0012,1.1272 -0.4133,2.2079 -1.1459,3.0049 -0.7326,0.7971 -1.7259,1.2454 -2.762,1.2467 z m 0,-5.7186 c -0.2667,0 -0.5274,0.086 -0.7491,0.2472 -0.2217,0.1612 -0.3946,0.3903 -0.4966,0.6584 -0.1021,0.268 -0.1288,0.563 -0.0768,0.8476 0.0521,0.2846 0.1805,0.546 0.3691,0.7511 0.1885,0.2052 0.4288,0.3449 0.6904,0.4015 0.2615,0.0566 0.5327,0.0276 0.7791,-0.0835 0.2463,-0.111 0.4569,-0.299 0.6051,-0.5403 0.1482,-0.2412 0.2273,-0.5249 0.2273,-0.815 0,-0.3891 -0.1421,-0.7622 -0.395,-1.0374 -0.2529,-0.2751 -0.5958,-0.4296 -0.9535,-0.4296 z"
       id="path56"
       inkscape:connector-curvature="0"
       style="fill:#426572" />
    <path
       d="m 110.297,39.2921 c -0.853,-0.6307 -1.807,-1.0809 -2.813,-1.3269 0.74,-0.4623 1.403,-1.056 1.963,-1.7567 0.509,-0.8904 0.818,-1.8988 0.901,-2.9434 0.048,-0.7055 0.159,-3.6675 -1.962,-5.3728 -1.64,-1.3176 -3.521,-1.8408 -6.042,-2.0137 v -5.9709 h -3.3884 v 5.9055 H 96.379 v -5.9055 h -3.3839 v 5.9055 h -6.6562 v 3.8264 h 1.9582 c 0.5325,0 1.4815,0.0654 1.8852,0.556 0.4037,0.4905 0.4767,0.7475 0.4767,1.7053 0,0.9577 0,14.8805 0,15.2449 0.0131,0.1998 -0.011,0.4004 -0.0708,0.5898 -0.0597,0.1895 -0.154,0.3639 -0.2771,0.5128 -0.2834,0.2943 -0.5711,0.3597 -1.2496,0.3597 h -2.0269 l -0.6957,4.4245 h 6.6605 v 5.8867 h 3.3839 v -5.8914 h 2.5766 v 5.8868 h 3.3711 v -5.9849 c 0.859,-0.0561 1.692,-0.1262 2.147,-0.1962 1.853,-0.1775 3.637,-0.8517 5.192,-1.9623 2.04,-1.5511 2.499,-3.9759 2.546,-6.4194 0.048,-2.4435 -0.768,-4.1161 -1.919,-5.0598 z M 96.3876,29.976 c 0,0 1.0779,-0.1028 2.1472,-0.0841 1.1404,-0.0221 2.2772,0.1529 3.3672,0.5186 1.391,0.4672 2.215,1.6025 2.245,2.9434 0.041,0.5717 -0.076,1.1436 -0.335,1.6429 -0.259,0.4992 -0.649,0.9031 -1.12,1.1603 -1.088,0.5876 -2.282,0.9067 -3.4959,0.9344 -1.2325,0.0514 -2.8171,0 -2.8171,0 z m 7.5794,17.6089 c -1.209,0.5875 -2.508,0.9265 -3.83,0.9999 -1.5035,0.1214 -3.7494,0.0701 -3.7494,0.0701 v -7.9005 c 0,0 2.1472,-0.1215 3.8304,0 1.281,0.0698 2.54,0.3862 3.719,0.9344 0.514,0.2626 0.95,0.6784 1.256,1.1992 0.306,0.5208 0.47,1.1252 0.473,1.7432 0.003,0.6181 -0.155,1.2245 -0.456,1.7489 -0.3,0.5244 -0.731,0.9454 -1.243,1.2142 z"
       id="path58"
       inkscape:connector-curvature="0"
       style="fill:#426572" />
    <path
       d="m 121.711,20.0619 c 2.956,4.073 4.964,8.862 5.853,13.9601 0.146,0.8783 1.383,0.5092 1.233,-0.3691 -0.95,-5.3291 -3.072,-10.3288 -6.184,-14.5722 -0.502,-0.7054 -1.404,0.285 -0.906,0.9858 z"
       id="path60"
       inkscape:connector-curvature="0"
       style="fill:#ffffff" />
    <path
       d="m 115.819,13.6844 c 1.424,1.1651 2.736,2.483 3.917,3.9339 0.567,0.6541 1.468,-0.3317 0.906,-0.9858 -1.26,-1.532 -2.658,-2.9219 -4.174,-4.1488 -0.674,-0.5186 -1.314,0.6915 -0.644,1.2007 z"
       id="path62"
       inkscape:connector-curvature="0"
       style="fill:#ffffff" />
    <path
       d="M 98.5262,79.5792 C 91.3397,79.5801 84.3145,77.2625 78.3387,72.9194 72.363,68.5763 67.7053,62.4029 64.9546,55.1797 62.2039,47.9566 61.4837,40.0082 62.8852,32.3398 64.2867,24.6714 67.7469,17.6274 72.8281,12.0985 77.9094,6.56961 84.3836,2.80426 91.4318,1.2786 c 7.0483,-1.525663 14.3542,-0.743105 20.9932,2.24871 6.64,2.99181 12.315,8.05849 16.307,14.55929 3.993,6.5008 6.124,14.1438 6.124,21.9623 -0.01,10.4799 -3.841,20.5274 -10.652,27.9382 -6.811,7.4108 -16.045,11.5797 -25.6778,11.5921 z m 0,-75.40696 c -6.5229,0 -12.8994,2.1044 -18.323,6.04706 -5.4236,3.9427 -9.6508,9.5466 -12.147,16.1031 -2.4962,6.5565 -3.1493,13.771 -1.8767,20.7313 1.2725,6.9603 4.4136,13.3537 9.026,18.3718 4.6124,5.0181 10.4889,8.4355 16.8865,9.82 6.3976,1.3845 13.029,0.6739 19.055,-2.0419 6.027,-2.7157 11.177,-7.3147 14.801,-13.2154 3.624,-5.9006 5.559,-12.8379 5.559,-19.9346 -0.008,-9.5141 -3.485,-18.6361 -9.669,-25.364 C 115.655,7.96163 107.271,4.17746 98.5262,4.16757 Z"
       id="path64"
       inkscape:connector-curvature="0"
       style="fill:#426572" />
    <path
       d="M 139.099,35.7133 H 22.8129 c -10.6323,0 -19.25144,9.3773 -19.25144,20.9448 v 72.9309 c 0,11.567 8.61914,20.945 19.25144,20.945 H 139.099 c 10.632,0 19.251,-9.378 19.251,-20.945 V 56.6581 c 0,-11.5675 -8.619,-20.9448 -19.251,-20.9448 z"
       id="path66"
       inkscape:connector-curvature="0"
       style="fill:#b0dfea" />
    <path
       d="m 158.35,119.988 v 12.759 c 0.001,2.504 -0.452,4.984 -1.332,7.297 -0.881,2.314 -2.172,4.416 -3.799,6.187 -1.628,1.77 -3.56,3.175 -5.686,4.133 -2.127,0.958 -4.406,1.45 -6.708,1.45 H 21.0866 c -2.3019,0 -4.5815,-0.493 -6.7082,-1.451 C 12.2516,149.405 10.3192,148 8.69168,146.229 7.06415,144.458 5.77337,142.355 4.8931,140.041 4.01284,137.727 3.56034,135.247 3.56146,132.742 v -12.754 c -5.6e-4,2.504 0.45236,4.983 1.33288,7.297 0.88052,2.313 2.17139,4.416 3.79886,6.186 1.6275,1.771 3.5597,3.175 5.6862,4.133 2.1265,0.958 4.4056,1.451 6.7072,1.45 H 140.83 c 2.301,0 4.58,-0.493 6.706,-1.451 2.126,-0.958 4.057,-2.363 5.684,-4.133 1.627,-1.771 2.918,-3.873 3.798,-6.186 0.88,-2.313 1.333,-4.793 1.332,-7.296 z"
       id="path68"
       inkscape:connector-curvature="0"
       style="fill:#95bcc9" />
    <path
       d="M 139.099,155 H 22.8129 C 17.0259,154.993 11.4778,152.488 7.38568,148.036 3.29361,143.584 0.991682,137.548 0.984863,131.252 V 58.3213 C 0.991682,52.0252 3.29361,45.9891 7.38568,41.5371 11.4778,37.0851 17.0259,34.5807 22.8129,34.5732 H 139.099 c 5.787,0.0075 11.335,2.5119 15.427,6.9639 4.092,4.452 6.394,10.4881 6.401,16.7842 v 72.9307 c -0.007,6.296 -2.309,12.332 -6.401,16.784 -4.092,4.452 -9.64,6.957 -15.427,6.964 z M 22.8129,40.1797 c -4.421,0.005 -8.6597,1.9179 -11.7859,5.319 -3.12613,3.4011 -4.8844,8.0127 -4.88895,12.8226 v 72.9307 c 0.00455,4.81 1.76282,9.421 4.88895,12.823 3.1262,3.401 7.3649,5.314 11.7859,5.319 H 139.099 c 4.421,-0.005 8.66,-1.918 11.786,-5.319 3.126,-3.402 4.884,-8.013 4.889,-12.823 V 58.3213 c -0.005,-4.8099 -1.763,-9.4215 -4.889,-12.8226 -3.126,-3.4011 -7.365,-5.314 -11.786,-5.319 z"
       id="path70"
       inkscape:connector-curvature="0"
       style="fill:#426572" />
    <path
       d="m 138.493,143.058 h -5.153 v -3.27 h 5.153 z m -10.246,0 h -5.097 v -3.27 h 5.097 z m -10.195,0 h -5.097 v -3.27 h 5.097 z m -10.194,0 h -5.098 v -3.27 h 5.098 z m -10.195,0 h -5.0974 v -3.27 h 5.0974 z m -10.1948,0 h -5.093 v -3.27 h 5.0973 z m -10.1947,0 h -5.0931 v -3.27 h 5.0974 z m -10.1947,0 h -5.1146 v -3.27 h 5.0974 z m -10.1947,0 H 51.791 v -3.27 h 5.0974 z m -10.1948,0 h -5.093 v -3.27 h 5.0973 z m -10.1947,0 h -5.0931 v -3.27 h 5.0974 z m -10.1733,0 h -1.6747 c -1.2965,0.002 -2.5859,-0.206 -3.8263,-0.616 l 0.8589,-3.131 c 0.9567,0.314 1.951,0.471 2.9502,0.467 h 1.6919 z m 117.7587,-1.378 -1.288,-2.953 c 1.34,-0.696 2.524,-1.702 3.47,-2.948 l 2.319,2.079 c -1.231,1.617 -2.771,2.921 -4.514,3.822 z M 15.8561,139.372 c -1.4257,-1.408 -2.5513,-3.138 -3.2981,-5.069 l 2.7742,-1.266 c 0.5758,1.488 1.4434,2.821 2.5422,3.906 z m 135.2709,-7.059 -2.916,-0.804 c 0.206,-0.886 0.31,-1.796 0.31,-2.71 v -2.401 h 3.006 v 2.401 c 0.006,1.184 -0.122,2.364 -0.382,3.514 z M 14.5463,128.257 h -3.006 v -5.546 h 3.006 z m 136.9887,-7.405 h -3.006 v -5.546 h 3.006 z M 14.5463,117.166 h -3.006 v -5.546 h 3.006 z m 136.9887,-7.405 h -3.006 v -5.546 h 3.006 z M 14.5463,106.056 h -3.006 v -5.523 h 3.006 z M 151.535,98.6504 h -3.006 v -5.527 h 3.006 z M 14.5463,94.9642 h -3.006 v -5.5224 h 3.006 z M 151.535,87.559 h -3.006 v -5.5224 h 3.006 z M 14.5463,83.8727 h -3.006 v -5.5223 h 3.006 z M 151.535,76.4675 h -3.006 v -5.5223 h 3.006 z M 14.5463,72.7813 h -3.006 v -5.5037 h 3.006 z M 151.535,65.3761 h -3.006 v -5.5224 h 3.006 z M 14.5463,61.6898 h -3.006 v -2.3547 c 0.0063,-1.1969 0.1506,-2.3882 0.4294,-3.5461 l 2.9116,0.813 c -0.209,0.8932 -0.3143,1.8114 -0.3135,2.7331 z m 133.2057,-6.639 c -0.579,-1.4869 -1.45,-2.8183 -2.551,-3.9011 l 2.014,-2.4295 c 1.43,1.404 2.56,3.1309 3.311,5.0598 z M 16.8738,52.327 14.5592,50.2433 c 1.2286,-1.6124 2.766,-2.9135 4.5047,-3.8124 l 1.2883,2.9574 c -1.3423,0.6923 -2.5294,1.6952 -3.4784,2.9387 z M 141.383,48.8043 c -0.949,-0.3113 -1.936,-0.4687 -2.928,-0.4672 h -1.684 v -3.2704 h 1.684 c 1.287,-0.0016 2.568,0.203 3.8,0.6073 z m -9.709,-0.4672 h -5.11 v -3.2704 h 5.097 z m -10.195,0 h -5.11 v -3.2704 h 5.097 z m -10.194,0 h -5.089 v -3.2704 h 5.097 z m -10.195,0 h -5.1104 v -3.2704 h 5.0974 z m -10.1949,0 h -5.1102 v -3.2704 h 5.0973 z m -10.1947,0 h -5.106 v -3.2704 h 5.0974 z m -10.1947,0 h -5.106 v -3.2704 h 5.0974 z m -10.1948,0 H 55.205 v -3.2704 h 5.0973 z m -10.1947,0 h -5.1059 v -3.2704 h 5.0973 z m -10.1947,0 h -5.106 v -3.2704 h 5.0974 z m -10.1948,0 h -5.0801 l -0.0258,-3.2704 h 5.0974 z"
       id="path72"
       inkscape:connector-curvature="0"
       style="fill:#426572" />
    <path
       d="m 155.684,116.829 -28.343,2.047 c -1.081,0.09 -2.168,0.07 -3.246,-0.061 -4.244,-0.57 -8.15,-2.808 -10.982,-6.293 -2.833,-3.485 -4.396,-7.977 -4.396,-12.6288 0,-5.0552 1.845,-9.9034 5.13,-13.4789 3.284,-3.5754 7.74,-5.5853 12.386,-5.5878 h 24.366 c 4.648,0 9.106,2.0088 12.392,5.5845 3.287,3.5757 5.133,8.4254 5.133,13.4822 0,10.5258 -2.765,16.9358 -12.44,16.9358 z"
       id="path74"
       inkscape:connector-curvature="0"
       style="fill:#95bcc9" />
    <path
       d="m 155.684,74.024 h -24.366 c -9.679,0 -17.526,8.5354 -17.526,19.0644 0,10.5286 7.847,19.0646 17.526,19.0646 h 24.366 c 9.678,0 17.525,-8.536 17.525,-19.0646 0,-10.529 -7.847,-19.0644 -17.525,-19.0644 z"
       id="path76"
       inkscape:connector-curvature="0"
       style="fill:#d9f4f9" />
    <path
       d="M 157.638,116.656 H 133.25 c -2.664,0.043 -5.31,-0.491 -7.782,-1.571 -2.473,-1.08 -4.724,-2.684 -6.622,-4.719 -1.897,-2.035 -3.404,-4.46 -4.433,-7.134 -1.029,-2.674 -1.559,-5.5442 -1.559,-8.4431 0,-2.8989 0.53,-5.7688 1.559,-8.443 1.029,-2.6741 2.536,-5.0991 4.433,-7.1339 1.898,-2.0348 4.149,-3.6388 6.622,-4.7187 2.472,-1.08 5.118,-1.6143 7.782,-1.5719 h 24.37 c 2.665,-0.0424 5.31,0.4919 7.783,1.5719 2.472,1.0799 4.723,2.6839 6.621,4.7187 1.898,2.0348 3.405,4.4598 4.433,7.1339 1.029,2.6742 1.559,5.5441 1.559,8.443 0,2.8989 -0.53,5.7691 -1.559,8.4431 -1.028,2.674 -2.535,5.099 -4.433,7.134 -1.898,2.035 -4.149,3.639 -6.621,4.719 -2.473,1.08 -5.118,1.614 -7.783,1.571 z M 133.25,78.5279 c -1.984,-0.0366 -3.955,0.3569 -5.798,1.1577 -1.843,0.8008 -3.521,1.9927 -4.936,3.5063 -1.415,1.5136 -2.538,3.3186 -3.306,5.3097 -0.767,1.9911 -1.162,4.1284 -1.162,6.2873 0,2.159 0.395,4.2963 1.162,6.2871 0.768,1.991 1.891,3.796 3.306,5.31 1.415,1.514 3.093,2.706 4.936,3.506 1.843,0.801 3.814,1.195 5.798,1.158 h 24.37 c 1.984,0.037 3.955,-0.357 5.798,-1.158 1.843,-0.8 3.521,-1.992 4.936,-3.506 1.415,-1.514 2.539,-3.319 3.306,-5.31 0.767,-1.9908 1.162,-4.1281 1.162,-6.2871 0,-2.1589 -0.395,-4.2962 -1.162,-6.2873 -0.767,-1.9911 -1.891,-3.7961 -3.306,-5.3097 -1.415,-1.5136 -3.093,-2.7055 -4.936,-3.5063 -1.843,-0.8008 -3.814,-1.1943 -5.798,-1.1577 z"
       id="path78"
       inkscape:connector-curvature="0"
       style="fill:#426572" />
    <path
       d="m 21.6534,56.3263 c -0.3337,0.0561 -0.6429,0.2246 -0.8841,0.4819 -0.2411,0.2573 -0.402,0.5904 -0.46,0.9524 0,0.0654 0,0.1121 0,0.1869 v 0.3504 l -0.03,0.6914 c -0.0816,1.8175 -0.2019,3.4574 -0.3522,4.8309 -0.2963,2.7519 -0.7085,4.4525 -1.1637,4.4525 -0.4552,0 -0.8589,-1.7006 -1.1638,-4.4525 -0.1503,-1.3735 -0.2705,-3.0134 -0.3521,-4.8309 l -0.0301,-0.6914 v -0.3504 c 0,-0.1589 0,-0.3504 0,-0.5233 0.0499,-0.734 0.2478,-1.4471 0.5797,-2.0884 0.348,-0.674 0.8323,-1.2531 1.4164,-1.6935 0.584,-0.4403 1.2524,-0.7303 1.9547,-0.8481 0.1805,-0.0307 0.3627,-0.0479 0.5454,-0.0514 h 1.1294 l 1.387,0.028 c 0.9104,0.0234 1.7865,0.0608 2.6239,0.1028 1.6705,0.0888 3.1778,0.2196 4.4403,0.3831 2.5294,0.3224 4.0925,0.7709 4.0925,1.2661 0,0.4953 -1.5631,0.9345 -4.0925,1.2662 -1.2625,0.1635 -2.7698,0.2943 -4.4403,0.3831 -0.8374,0.0467 -1.7178,0.0794 -2.6239,0.1028 l -1.387,0.028 h -1.0178 c -0.0578,0.0023 -0.1152,0.0101 -0.1718,0.0234 z"
       id="path80"
       inkscape:connector-curvature="0"
       style="fill:#ffffff" />
    <path
       d="m 45.6072,56.3029 c 2.6184,0 4.7409,-0.8011 4.7409,-1.7894 0,-0.9882 -2.1225,-1.7894 -4.7409,-1.7894 -2.6183,0 -4.7409,0.8012 -4.7409,1.7894 0,0.9883 2.1226,1.7894 4.7409,1.7894 z"
       id="path82"
       inkscape:connector-curvature="0"
       style="fill:#ffffff" />
    <path
       d="m 40.5641,127.206 c 0,1.213 -0.315,2.357 -0.945,3.43 -0.6067,1.05 -1.5167,1.925 -2.73,2.625 -1.19,0.677 -2.6016,1.073 -4.235,1.19 v 2.835 h -2.24 v -2.87 c -2.3333,-0.21 -4.2117,-0.91 -5.635,-2.1 -1.4233,-1.213 -2.1583,-2.847 -2.205,-4.9 h 5.25 c 0.14,1.68 1.0033,2.695 2.59,3.045 v -6.685 c -1.68,-0.42 -3.0333,-0.84 -4.06,-1.26 -1.0267,-0.42 -1.9133,-1.097 -2.66,-2.03 -0.7467,-0.933 -1.12,-2.205 -1.12,-3.815 0,-2.03 0.7233,-3.687 2.17,-4.97 1.47,-1.283 3.36,-2.018 5.67,-2.205 v -2.835 h 2.24 v 2.835 c 2.24,0.187 4.025,0.863 5.355,2.03 1.3534,1.167 2.1117,2.777 2.275,4.83 h -5.285 c -0.07,-0.677 -0.315,-1.26 -0.735,-1.75 -0.3967,-0.513 -0.9333,-0.875 -1.61,-1.085 v 6.615 c 1.75,0.443 3.1267,0.875 4.13,1.295 1.0267,0.397 1.9134,1.062 2.66,1.995 0.7467,0.91 1.12,2.17 1.12,3.78 z m -12.88,-10.78 c 0,0.77 0.2334,1.4 0.7,1.89 0.4667,0.467 1.1433,0.852 2.03,1.155 v -6.055 c -0.84,0.117 -1.505,0.432 -1.995,0.945 -0.49,0.513 -0.735,1.202 -0.735,2.065 z m 4.97,14.105 c 0.8867,-0.163 1.575,-0.525 2.065,-1.085 0.5134,-0.56 0.77,-1.237 0.77,-2.03 0,-0.77 -0.245,-1.388 -0.735,-1.855 -0.49,-0.467 -1.19,-0.852 -2.1,-1.155 z"
       id="path84"
       inkscape:connector-curvature="0"
       style="fill:#426572" />
  </g>
  <defs
     id="defs91">
    <clipPath
       id="clip0">
      <rect
         width="176.75"
         height="155"
         transform="translate(0.984863)"
         id="rect88"
         x="0"
         y="0"
         style="fill:#ffffff" />
    </clipPath>
  </defs>
</svg>
